<svg width="600" height="300" viewBox="0 0 600 300" fill="none" xmlns="http://www.w3.org/2000/svg">
<rect width="600" height="300" fill="#071926"/>
<path fill-rule="evenodd" clip-rule="evenodd" d="M322.657 20.1101L323.971 21.4224L325.286 20.1101L390.85 85.565H257.093L322.657 20.1101ZM323.971 21.8727L262.351 83.3907H385.592L323.971 21.8727Z" fill="#173A56"/>
<path d="M547.901 50.42H544.938V49.0972H547.901V46.065H549.241V49.0972H552.211V50.42H549.241V53.4373H547.901V50.42Z" fill="#27AE60"/>
<path d="M564.941 55.1243H557.564V53.8015L560.37 50.9849C561.199 50.1376 561.747 49.5381 562.015 49.1864C562.288 48.8296 562.487 48.4952 562.611 48.1831C562.735 47.8709 562.797 47.5365 562.797 47.1798C562.797 46.6893 562.648 46.3028 562.35 46.0204C562.058 45.738 561.651 45.5968 561.13 45.5968C560.713 45.5968 560.308 45.6736 559.916 45.8272C559.529 45.9808 559.08 46.2582 558.569 46.6596L557.623 45.5076C558.229 44.9973 558.817 44.6356 559.388 44.4226C559.958 44.2095 560.566 44.103 561.211 44.103C562.224 44.103 563.035 44.3681 563.646 44.8982C564.256 45.4234 564.561 46.1319 564.561 47.0237C564.561 47.5142 564.472 47.9799 564.293 48.4209C564.12 48.8618 563.849 49.3177 563.482 49.7883C563.12 50.2541 562.514 50.8858 561.666 51.6834L559.775 53.5117V53.586H564.941V55.1243Z" fill="#27AE60"/>
<path d="M566.594 54.1954C566.594 53.8337 566.688 53.5562 566.876 53.363C567.065 53.1698 567.338 53.0732 567.695 53.0732C568.058 53.0732 568.333 53.1747 568.522 53.3779C568.71 53.5761 568.805 53.8486 568.805 54.1954C568.805 54.5471 568.708 54.8271 568.514 55.0352C568.326 55.2383 568.053 55.3399 567.695 55.3399C567.338 55.3399 567.065 55.2383 566.876 55.0352C566.688 54.832 566.594 54.5521 566.594 54.1954Z" fill="#27AE60"/>
<path d="M574.164 48.3391C575.261 48.3391 576.13 48.629 576.77 49.2087C577.41 49.7883 577.73 50.5786 577.73 51.5794C577.73 52.7387 577.365 53.6454 576.636 54.2994C575.911 54.9485 574.879 55.273 573.539 55.273C572.323 55.273 571.368 55.0773 570.673 54.6859V53.1029C571.075 53.3308 571.537 53.5067 572.058 53.6306C572.579 53.7544 573.063 53.8164 573.509 53.8164C574.298 53.8164 574.899 53.6405 575.311 53.2887C575.723 52.9369 575.929 52.4217 575.929 51.7429C575.929 50.4448 575.1 49.7958 573.442 49.7958C573.209 49.7958 572.921 49.8205 572.579 49.8701C572.236 49.9147 571.936 49.9667 571.678 50.0262L570.896 49.5654L571.313 44.2591H576.971V45.8123H572.854L572.609 48.5026C572.782 48.4729 572.993 48.4382 573.241 48.3986C573.494 48.359 573.802 48.3391 574.164 48.3391Z" fill="#27AE60"/>
<path d="M593.483 45.886L584.777 54.5773L586.227 56.0246L594.933 47.3333L597.107 49.5043L597.1 43.7222L591.308 43.715L593.483 45.886V45.886Z" fill="#27AE60"/>
<path d="M570.623 110.026L590.77 109.482V238.639C590.77 244.162 586.292 248.639 580.77 248.639H355.757H43.2131C37.6902 248.639 33.2131 244.162 33.2131 238.639V179.061H138.678L156.268 173.857L178.047 155.143L198.193 145.902L225.418 145.359L245.019 149.707L263.532 161.123L285.732 183.409L302.735 200.26L313.625 204.065L323.97 200.26L334.315 193.738L342.483 192.65H394.754L404.01 188.302L411.633 182.322L422.523 183.953L432.868 192.65L447.569 191.563L457.37 185.584L470.438 172.538L498.206 145.359L504.74 138.836L513.997 131.769L522.164 126.333L545.032 115.462L570.623 110.026Z" fill="url(#paint0_linear)"/>
<g style="mix-blend-mode:overlay">
<path fill-rule="evenodd" clip-rule="evenodd" d="M24.5013 61.6475L599.481 61.6475V63.8218L24.5013 63.8218V61.6475Z" fill="#B5CDE3"/>
</g>
<g style="mix-blend-mode:overlay">
<path fill-rule="evenodd" clip-rule="evenodd" d="M24.5013 248.639L599.481 248.639V250.813L24.5013 250.813V248.639Z" fill="#B5CDE3"/>
</g>
<g style="mix-blend-mode:overlay">
<path fill-rule="evenodd" clip-rule="evenodd" d="M24.5013 155.143L599.481 155.143V157.318L24.5013 157.318V155.143Z" fill="#B5CDE3"/>
</g>
<g style="mix-blend-mode:overlay">
<path fill-rule="evenodd" clip-rule="evenodd" d="M24.5013 108.395L599.481 108.395V110.57L24.5013 110.57V108.395Z" fill="#B5CDE3"/>
</g>
<g style="mix-blend-mode:overlay">
<path fill-rule="evenodd" clip-rule="evenodd" d="M35.3918 250.814L35.3918 259.511L33.2139 259.511L33.2139 250.814L35.3918 250.814Z" fill="#B5CDE3"/>
</g>
<g style="mix-blend-mode:overlay">
<path fill-rule="evenodd" clip-rule="evenodd" d="M590.77 250.814L590.77 259.511L588.592 259.511L588.592 250.814L590.77 250.814Z" fill="#B5CDE3"/>
</g>
<g style="mix-blend-mode:overlay">
<path fill-rule="evenodd" clip-rule="evenodd" d="M313.081 250.814L313.081 259.511L310.903 259.511L310.903 250.814L313.081 250.814Z" fill="#B5CDE3"/>
</g>
<g style="mix-blend-mode:overlay">
<path fill-rule="evenodd" clip-rule="evenodd" d="M173.693 250.814L173.693 259.511L171.515 259.511L171.515 250.814L173.693 250.814Z" fill="#B5CDE3"/>
</g>
<g style="mix-blend-mode:overlay">
<path fill-rule="evenodd" clip-rule="evenodd" d="M451.382 250.814L451.382 259.511L449.204 259.511L449.204 250.814L451.382 250.814Z" fill="#B5CDE3"/>
</g>
<g style="mix-blend-mode:overlay">
<path fill-rule="evenodd" clip-rule="evenodd" d="M24.5013 201.891L599.481 201.891V204.066L24.5013 204.066V201.891Z" fill="#B5CDE3"/>
</g>
<path d="M3.17713 154.763C4.11723 154.763 4.86164 155.012 5.41039 155.509C5.95913 156.005 6.2335 156.683 6.2335 157.541C6.2335 158.534 5.92084 159.312 5.29553 159.872C4.67448 160.428 3.78968 160.707 2.64115 160.707C1.59896 160.707 0.780105 160.539 0.18457 160.203V158.847C0.52913 159.042 0.924735 159.193 1.37139 159.299C1.81804 159.405 2.23278 159.458 2.61563 159.458C3.29198 159.458 3.8067 159.307 4.15976 159.006C4.51283 158.704 4.68936 158.263 4.68936 157.681C4.68936 156.568 3.97898 156.012 2.5582 156.012C2.35827 156.012 2.11155 156.033 1.81804 156.076C1.52452 156.114 1.26717 156.158 1.04597 156.209L0.375992 155.814L0.733313 151.266H5.58267V152.597H2.05412L1.84356 154.903C1.99244 154.878 2.17323 154.848 2.38592 154.814C2.60287 154.78 2.8666 154.763 3.17713 154.763Z" fill="#173A56"/>
<path d="M7.75211 159.783C7.75211 159.473 7.83294 159.235 7.99458 159.07C8.15623 158.904 8.39019 158.821 8.69646 158.821C9.00699 158.821 9.24308 158.908 9.40472 159.082C9.56637 159.252 9.64719 159.486 9.64719 159.783C9.64719 160.084 9.56424 160.324 9.39834 160.503C9.2367 160.677 9.00274 160.764 8.69646 160.764C8.39019 160.764 8.15623 160.677 7.99458 160.503C7.83294 160.329 7.75211 160.089 7.75211 159.783Z" fill="#173A56"/>
<path d="M17.3998 155.923C17.3998 157.541 17.1382 158.743 16.6149 159.528C16.096 160.314 15.3005 160.707 14.2286 160.707C13.1906 160.707 12.4037 160.301 11.8677 159.49C11.3317 158.679 11.0637 157.49 11.0637 155.923C11.0637 154.279 11.3232 153.069 11.8422 152.292C12.3654 151.51 13.1608 151.12 14.2286 151.12C15.2707 151.12 16.0598 151.527 16.5958 152.343C17.1318 153.158 17.3998 154.351 17.3998 155.923ZM12.5823 155.923C12.5823 157.192 12.7121 158.099 12.9715 158.643C13.2353 159.186 13.6543 159.458 14.2286 159.458C14.8028 159.458 15.2218 159.182 15.4856 158.63C15.7535 158.078 15.8875 157.175 15.8875 155.923C15.8875 154.674 15.7535 153.772 15.4856 153.215C15.2218 152.655 14.8028 152.375 14.2286 152.375C13.6543 152.375 13.2353 152.648 12.9715 153.196C12.7121 153.744 12.5823 154.653 12.5823 155.923Z" fill="#173A56"/>
<path d="M8.01387 67.0831H6.5144V61.0698C6.5144 60.3521 6.53141 59.783 6.56544 59.3626C6.4676 59.4645 6.34637 59.577 6.20174 59.7002C6.06136 59.8233 5.58494 60.214 4.77246 60.8723L4.01953 59.9231L6.76324 57.77H8.01387V67.0831Z" fill="#173A56"/>
<path d="M17.3999 62.4266C17.3999 64.0446 17.1383 65.2464 16.6151 66.0321C16.0961 66.8177 15.3007 67.2105 14.2287 67.2105C13.1908 67.2105 12.4038 66.805 11.8678 65.9938C11.3318 65.1827 11.0639 63.9936 11.0639 62.4266C11.0639 60.7831 11.3233 59.5728 11.8423 58.7956C12.3655 58.0142 13.161 57.6235 14.2287 57.6235C15.2709 57.6235 16.06 58.0312 16.5959 58.8466C17.1319 59.662 17.3999 60.8553 17.3999 62.4266ZM12.5825 62.4266C12.5825 63.6964 12.7122 64.603 12.9717 65.1466C13.2354 65.6902 13.6544 65.962 14.2287 65.962C14.803 65.962 15.222 65.6859 15.4857 65.1339C15.7537 64.5818 15.8877 63.6794 15.8877 62.4266C15.8877 61.178 15.7537 60.2756 15.4857 59.7193C15.222 59.1587 14.803 58.8784 14.2287 58.8784C13.6544 58.8784 13.2354 59.1524 12.9717 59.7002C12.7122 60.248 12.5825 61.1568 12.5825 62.4266Z" fill="#173A56"/>
<path d="M6.33606 249.419C6.33606 251.037 6.07445 252.238 5.55123 253.024C5.03227 253.81 4.2368 254.202 3.16484 254.202C2.12691 254.202 1.33995 253.797 0.803972 252.986C0.267991 252.175 0 250.986 0 249.419C0 247.775 0.259483 246.565 0.778449 245.788C1.30167 245.006 2.09713 244.615 3.16484 244.615C4.20703 244.615 4.99611 245.023 5.53209 245.839C6.06807 246.654 6.33606 247.847 6.33606 249.419ZM1.51861 249.419C1.51861 250.688 1.64835 251.595 1.90784 252.139C2.17157 252.682 2.59058 252.954 3.16484 252.954C3.73911 252.954 4.15811 252.678 4.42184 252.126C4.68983 251.574 4.82383 250.671 4.82383 249.419C4.82383 248.17 4.68983 247.268 4.42184 246.711C4.15811 246.151 3.73911 245.87 3.16484 245.87C2.59058 245.87 2.17157 246.144 1.90784 246.692C1.64835 247.24 1.51861 248.149 1.51861 249.419Z" fill="#173A56"/>
<path d="M7.75258 253.279C7.75258 252.969 7.83341 252.731 7.99505 252.565C8.1567 252.4 8.39066 252.317 8.69693 252.317C9.00746 252.317 9.24355 252.404 9.40519 252.578C9.56684 252.748 9.64766 252.982 9.64766 253.279C9.64766 253.58 9.56471 253.82 9.39881 253.999C9.23717 254.173 9.00321 254.26 8.69693 254.26C8.39066 254.26 8.1567 254.173 7.99505 253.999C7.83341 253.825 7.75258 253.585 7.75258 253.279Z" fill="#173A56"/>
<path d="M17.4002 249.419C17.4002 251.037 17.1386 252.238 16.6154 253.024C16.0964 253.81 15.301 254.202 14.229 254.202C13.1911 254.202 12.4041 253.797 11.8682 252.986C11.3322 252.175 11.0642 250.986 11.0642 249.419C11.0642 247.775 11.3237 246.565 11.8426 245.788C12.3658 245.006 13.1613 244.615 14.229 244.615C15.2712 244.615 16.0603 245.023 16.5963 245.839C17.1323 246.654 17.4002 247.847 17.4002 249.419ZM12.5828 249.419C12.5828 250.688 12.7125 251.595 12.972 252.139C13.2358 252.682 13.6548 252.954 14.229 252.954C14.8033 252.954 15.2223 252.678 15.486 252.126C15.754 251.574 15.888 250.671 15.888 249.419C15.888 248.17 15.754 247.268 15.486 246.711C15.2223 246.151 14.8033 245.87 14.229 245.87C13.6548 245.87 13.2358 246.144 12.972 246.692C12.7125 247.24 12.5828 248.149 12.5828 249.419Z" fill="#173A56"/>
<path fill-rule="evenodd" clip-rule="evenodd" d="M585.87 111.113C552.835 111.113 521.152 124.215 497.793 147.535L458.185 187.077C453.565 191.69 447.298 194.281 440.764 194.281H438.55C433.433 194.281 428.526 192.252 424.907 188.64L423.585 187.319C421.426 185.164 418.498 183.953 415.445 183.953C412.392 183.953 409.464 185.164 407.305 187.319L405.982 188.64C402.364 192.252 397.457 194.281 392.34 194.281H339.806C335.33 194.281 331.036 196.057 327.871 199.217C320.003 207.071 307.248 207.071 299.38 199.217L265.499 165.392C253.348 153.261 236.867 146.446 219.683 146.446H212.104C197.007 146.446 182.528 152.434 171.852 163.091C160.564 174.361 145.254 180.692 129.29 180.692H33.2139V177.43H129.29C144.388 177.43 158.867 171.443 169.542 160.785C180.83 149.516 196.14 143.185 212.104 143.185H219.683C237.734 143.185 255.045 150.343 267.809 163.086L301.69 196.911C308.282 203.491 318.969 203.491 325.561 196.911C329.339 193.139 334.463 191.02 339.806 191.02H392.34C396.59 191.02 400.667 189.334 403.672 186.333L404.995 185.013C407.766 182.246 411.525 180.692 415.445 180.692C419.364 180.692 423.123 182.246 425.895 185.013L427.218 186.333C430.223 189.334 434.3 191.02 438.55 191.02H440.764C446.431 191.02 451.867 188.772 455.875 184.771L495.483 145.229C519.455 121.297 551.968 107.852 585.87 107.852H590.77V111.113H585.87Z" fill="white"/>
<g style="mix-blend-mode:color-dodge">
<path fill-rule="evenodd" clip-rule="evenodd" d="M529.243 98.8106C542.665 98.8106 553.545 109.673 553.545 123.072C553.545 136.471 542.665 147.334 529.243 147.334C515.822 147.334 504.941 136.471 504.941 123.072C504.941 109.673 515.822 98.8106 529.243 98.8106ZM557.146 123.072C557.146 107.688 544.653 95.2163 529.243 95.2163C513.833 95.2163 501.341 107.688 501.341 123.072C501.341 138.456 513.833 150.928 529.243 150.928C544.653 150.928 557.146 138.456 557.146 123.072Z" fill="#0E2435"/>
<path fill-rule="evenodd" clip-rule="evenodd" d="M295.113 168.389C308.535 168.389 319.415 179.251 319.415 192.65C319.415 206.05 308.535 216.912 295.113 216.912C281.692 216.912 270.811 206.05 270.811 192.65C270.811 179.251 281.692 168.389 295.113 168.389ZM323.016 192.65C323.016 177.266 310.523 164.795 295.113 164.795C279.703 164.795 267.211 177.266 267.211 192.65C267.211 208.035 279.703 220.506 295.113 220.506C310.523 220.506 323.016 208.035 323.016 192.65Z" fill="#0E2435"/>
<path fill-rule="evenodd" clip-rule="evenodd" d="M87.1182 154.256C100.54 154.256 111.42 165.118 111.42 178.517C111.42 191.917 100.54 202.779 87.1182 202.779C73.6966 202.779 62.8163 191.917 62.8163 178.517C62.8163 165.118 73.6966 154.256 87.1182 154.256ZM115.021 178.517C115.021 163.133 102.528 150.662 87.1182 150.662C71.7082 150.662 59.216 163.133 59.216 178.517C59.216 193.902 71.7082 206.373 87.1182 206.373C102.528 206.373 115.021 193.902 115.021 178.517Z" fill="#0E2435"/>
<path fill-rule="evenodd" clip-rule="evenodd" d="M529.244 162.277C550.933 162.277 568.515 144.724 568.515 123.072C568.515 101.42 550.933 83.8672 529.244 83.8672C507.556 83.8672 489.974 101.42 489.974 123.072C489.974 144.724 507.556 162.277 529.244 162.277ZM529.244 167.102C553.602 167.102 573.348 147.389 573.348 123.072C573.348 98.7549 553.602 79.042 529.244 79.042C504.886 79.042 485.141 98.7549 485.141 123.072C485.141 147.389 504.886 167.102 529.244 167.102Z" fill="#0E2435"/>
<path fill-rule="evenodd" clip-rule="evenodd" d="M295.113 231.855C316.802 231.855 334.384 214.302 334.384 192.65C334.384 170.998 316.802 153.445 295.113 153.445C273.425 153.445 255.843 170.998 255.843 192.65C255.843 214.302 273.425 231.855 295.113 231.855ZM295.113 236.68C319.471 236.68 339.217 216.967 339.217 192.65C339.217 168.333 319.471 148.62 295.113 148.62C270.756 148.62 251.01 168.333 251.01 192.65C251.01 216.967 270.756 236.68 295.113 236.68Z" fill="#0E2435"/>
<path fill-rule="evenodd" clip-rule="evenodd" d="M87.1182 217.722C108.807 217.722 126.389 200.17 126.389 178.517C126.389 156.865 108.807 139.313 87.1182 139.313C65.4298 139.313 47.8479 156.865 47.8479 178.517C47.8479 200.17 65.4298 217.722 87.1182 217.722ZM87.1182 222.547C111.476 222.547 131.222 202.835 131.222 178.517C131.222 154.2 111.476 134.487 87.1182 134.487C62.7605 134.487 43.0146 154.2 43.0146 178.517C43.0146 202.835 62.7605 222.547 87.1182 222.547Z" fill="#0E2435"/>
</g>
<g style="mix-blend-mode:overlay">
<path fill-rule="evenodd" clip-rule="evenodd" d="M578.792 123.616H480.784V122.529H578.792V123.616Z" fill="#D5DDE4"/>
</g>
<g style="mix-blend-mode:overlay">
<path fill-rule="evenodd" clip-rule="evenodd" d="M344.661 193.194H246.653V192.107H344.661V193.194Z" fill="#D5DDE4"/>
</g>
<g style="mix-blend-mode:overlay">
<path fill-rule="evenodd" clip-rule="evenodd" d="M136.666 179.061H38.6582V177.974H136.666V179.061Z" fill="#D5DDE4"/>
</g>
<g style="mix-blend-mode:overlay">
<path fill-rule="evenodd" clip-rule="evenodd" d="M529.787 74.6935L529.787 172.538L528.698 172.538L528.698 74.6935L529.787 74.6935Z" fill="#D5DDE4"/>
</g>
<g style="mix-blend-mode:overlay">
<path fill-rule="evenodd" clip-rule="evenodd" d="M295.657 144.272L295.657 242.116L294.568 242.116L294.568 144.272L295.657 144.272Z" fill="#D5DDE4"/>
</g>
<g style="mix-blend-mode:overlay">
<path fill-rule="evenodd" clip-rule="evenodd" d="M87.6632 130.139L87.6632 227.983L86.5742 227.983L86.5742 130.139L87.6632 130.139Z" fill="#D5DDE4"/>
</g>
<g filter="url(#filter0_d)">
<rect x="251.01" y="77.9548" width="149.19" height="47.8351" rx="4" fill="white"/>
</g>
<path d="M395.267 176.502C395.267 170.075 397.38 165.547 398.437 164.086L400.144 163.112L415.506 163.599C418.823 167.105 418.514 176.472 417.945 180.717V230.789L418.433 262.193H412.824C412.662 258.217 412.239 249.632 411.849 247.1C411.459 244.568 411.686 234.36 411.849 229.572V180.397L408.191 181.614C407.459 189.891 404.777 199.629 404.777 203.524C404.777 207.419 403.314 224.703 402.826 227.868C402.436 230.4 400.55 251.644 399.656 261.95H392.828C393.641 236.145 395.267 182.929 395.267 176.502Z" fill="#072B4D"/>
<path d="M405.752 192.325L411.849 245.152C412.093 242.799 412.58 237.995 412.58 237.606C412.58 237.216 413.231 198.33 413.556 178.936L410.873 178.692L406.728 180.64L405.752 192.325Z" fill="#041729"/>
<path d="M356.009 123.918C357.179 124.307 358.122 126.514 358.447 127.569L357.228 130.734C356.253 131.059 353.326 131.27 349.425 129.517C345.523 127.764 343.898 124.242 343.572 122.7C344.954 123.106 347.962 124.015 348.937 124.404C350.156 124.891 355.033 125.378 353.083 124.161C351.132 122.944 351.863 120.266 352.351 120.996C352.839 121.727 354.546 123.431 356.009 123.918Z" fill="#76493E"/>
<path d="M417.701 126.109C417.701 125.33 415.425 119.13 414.287 116.127L409.41 117.832L410.386 124.404L417.701 126.109Z" fill="#E18D50"/>
<path d="M397.95 163.842H401.364L402.583 159.217L402.339 137.551L400.632 135.603L393.561 138.281C394.341 138.865 396.812 155.565 397.95 163.842Z" fill="#A46947"/>
<path d="M400.633 95.4349C402.583 95.8244 405.184 100.628 406.241 102.982L407.216 104.686C407.542 105.822 407.46 107.753 404.534 106.39C400.876 104.686 400.389 103.955 398.438 101.764C396.487 99.5734 398.438 98.1128 398.438 98.5997C398.438 99.0865 399.901 100.791 401.364 101.034C402.827 101.278 402.583 100.791 402.583 100.06C402.583 99.476 400.958 97.5447 400.145 96.6521C399.495 96.0841 398.682 95.0454 400.633 95.4349Z" fill="#76493E"/>
<path d="M410.387 123.431V118.805L403.559 120.023V125.865L410.387 123.431Z" fill="#582F28"/>
<path d="M400.632 163.842H416.238C415.507 157.513 421.115 144.854 421.359 141.933C421.603 139.011 421.603 135.36 421.359 131.708C421.164 128.787 419.164 126.596 418.189 125.865C412.337 120.51 404.777 124.892 402.583 125.865C400.827 126.644 387.058 131.546 380.392 133.899C378.052 134.094 364.949 129.273 358.69 126.839C357.91 127.618 356.739 129.923 356.251 130.978C359.421 133.493 367.225 139.011 373.077 140.959C380.392 143.393 382.099 143.15 386.976 142.419C390.878 141.835 397.706 138.443 400.632 136.82C402.583 147.142 401.445 159.136 400.632 163.842Z" fill="#F19857"/>
<path d="M398.926 111.989C402.828 111.015 404.291 107.12 404.535 104.686L408.924 108.337L413.069 110.772C413.069 112.233 412.825 115.738 411.85 118.075C410.631 120.996 406.729 123.187 401.121 121.483C396.634 120.12 397.463 117.832 398.438 116.858V116.128L399.17 115.884C399.17 115.641 399.267 115.105 399.658 114.91C400.048 114.716 400.145 114.018 400.145 113.693C399.17 113.498 398.926 112.476 398.926 111.989Z" fill="#76493E"/>
<path d="M412.337 120.266C413.312 118.903 415.832 115.316 416.97 113.693C419.506 111.551 418.027 109.555 416.97 108.825C417.945 104.443 405.509 96.6525 403.802 102.495C402.095 108.338 407.216 111.746 409.654 112.476C412.093 113.207 409.898 116.371 407.704 116.858C405.509 117.345 406.972 119.293 408.435 120.51C409.898 121.727 411.117 121.971 412.337 120.266Z" fill="#1E0A07"/>
<path d="M413.8 262.193H417.457V266.819C418.628 267.208 420.221 269.091 420.871 269.983L421.115 270.957H413.8V262.193Z" fill="black"/>
<path d="M397.706 270.227V261.706L393.804 261.463L393.561 266.575C390.244 266.77 384.863 269.091 382.587 270.227H397.706Z" fill="black"/>
<path d="M414.045 138.524C414.127 144.204 413.655 156.198 411.119 158.73C407.949 161.895 405.511 162.138 405.998 162.138C406.388 162.138 410.713 162.138 412.826 162.138" stroke="#C98056"/>
<path d="M400.146 171.389C399.333 170.253 397.805 167.689 398.195 166.52L397.219 169.928L398.195 171.389L394.049 260.732" stroke="#1E3EA0"/>
<path d="M413.312 171.876L409.898 177.475L406.24 178.936L402.826 196.707" stroke="#1E3EA0"/>
<rect x="396.932" y="94.2622" width="3.26693" height="9.78446" fill="white"/>
<ellipse cx="323.971" cy="21.4224" rx="5.44489" ry="5.43581" fill="#173A56"/>
<g filter="url(#filter1_d)">
<path d="M96.374 187.758H110.554C118.36 187.758 124.687 194.086 124.687 201.891V201.891C124.687 209.697 118.348 216.025 110.543 216.025V216.025C102.724 216.025 96.374 209.686 96.374 201.868V187.758Z" fill="#FB9B0B"/>
</g>
<path d="M115.919 201.79C115.919 203.584 115.42 204.956 114.422 205.908C113.425 206.854 111.988 207.327 110.112 207.327H107.067V196.462H110.432C112.164 196.462 113.512 196.928 114.474 197.859C115.437 198.791 115.919 200.101 115.919 201.79ZM114.043 201.85C114.043 199.249 112.824 197.948 110.387 197.948H108.847V205.833H110.112C112.732 205.833 114.043 204.506 114.043 201.85Z" fill="#0E2435"/>
<g filter="url(#filter2_d)">
<path d="M538.499 132.313H552.679C560.485 132.313 566.812 138.641 566.812 146.446V146.446C566.812 154.252 560.473 160.579 552.668 160.579V160.579C544.849 160.579 538.499 154.241 538.499 146.423V132.313Z" fill="#2F80ED"/>
</g>
<path d="M548.668 141.017H551.899C553.398 141.017 554.479 141.235 555.144 141.671C555.814 142.107 556.149 142.795 556.149 143.737C556.149 144.371 555.986 144.898 555.658 145.32C555.331 145.741 554.859 146.006 554.244 146.115V146.189C555.008 146.333 555.569 146.618 555.926 147.044C556.288 147.465 556.469 148.037 556.469 148.761C556.469 149.737 556.127 150.502 555.442 151.057C554.762 151.607 553.814 151.882 552.598 151.882H548.668V141.017ZM550.447 145.505H552.159C552.904 145.505 553.447 145.389 553.79 145.156C554.132 144.918 554.303 144.517 554.303 143.952C554.303 143.442 554.117 143.073 553.745 142.845C553.378 142.617 552.792 142.503 551.988 142.503H550.447V145.505ZM550.447 146.947V150.388H552.338C553.082 150.388 553.643 150.247 554.02 149.964C554.402 149.677 554.594 149.226 554.594 148.612C554.594 148.047 554.4 147.628 554.013 147.356C553.626 147.083 553.038 146.947 552.249 146.947H550.447Z" fill="white"/>
<g filter="url(#filter3_d)">
<path d="M286.945 201.891H272.765C264.96 201.891 258.632 208.219 258.632 216.024V216.024C258.632 223.83 264.971 230.158 272.777 230.158V230.158C280.595 230.158 286.945 223.819 286.945 216.001V201.891Z" fill="#B30015"/>
</g>
<path d="M272.085 221.46H270.32V210.595H276.462V212.096H272.085V215.493H276.186V217.001H272.085V221.46Z" fill="white"/>
<path d="M82.2178 178.517C82.2178 181.219 84.4117 183.409 87.1182 183.409C89.8246 183.409 92.0186 181.219 92.0186 178.517C92.0186 175.815 89.8246 173.625 87.1182 173.625C84.4117 173.625 82.2178 175.815 82.2178 178.517Z" fill="#0E2435"/>
<path fill-rule="evenodd" clip-rule="evenodd" d="M87.118 174.712C89.223 174.712 90.9295 176.416 90.9295 178.517C90.9295 180.619 89.223 182.323 87.118 182.323C85.0131 182.323 83.3066 180.619 83.3066 178.517C83.3066 176.416 85.0131 174.712 87.118 174.712ZM93.1074 178.517C93.1074 175.215 90.4259 172.538 87.118 172.538C83.8102 172.538 81.1287 175.215 81.1287 178.517C81.1287 181.82 83.8102 184.497 87.118 184.497C90.4259 184.497 93.1074 181.82 93.1074 178.517Z" fill="white"/>
<path d="M290.213 192.651C290.213 195.352 292.407 197.543 295.113 197.543C297.82 197.543 300.014 195.352 300.014 192.651C300.014 189.949 297.82 187.758 295.113 187.758C292.407 187.758 290.213 189.949 290.213 192.651Z" fill="#0E2435"/>
<path fill-rule="evenodd" clip-rule="evenodd" d="M295.113 188.845C297.218 188.845 298.925 190.549 298.925 192.65C298.925 194.752 297.218 196.455 295.113 196.455C293.008 196.455 291.302 194.752 291.302 192.65C291.302 190.549 293.008 188.845 295.113 188.845ZM301.103 192.65C301.103 189.348 298.421 186.671 295.113 186.671C291.805 186.671 289.124 189.348 289.124 192.65C289.124 195.953 291.805 198.63 295.113 198.63C298.421 198.63 301.103 195.953 301.103 192.65Z" fill="white"/>
<path d="M524.343 123.072C524.343 125.774 526.537 127.964 529.243 127.964C531.95 127.964 534.144 125.774 534.144 123.072C534.144 120.37 531.95 118.18 529.243 118.18C526.537 118.18 524.343 120.37 524.343 123.072Z" fill="#0E2435"/>
<path fill-rule="evenodd" clip-rule="evenodd" d="M529.243 119.267C531.348 119.267 533.054 120.971 533.054 123.072C533.054 125.174 531.348 126.877 529.243 126.877C527.138 126.877 525.432 125.174 525.432 123.072C525.432 120.971 527.138 119.267 529.243 119.267ZM535.232 123.072C535.232 119.77 532.551 117.093 529.243 117.093C525.935 117.093 523.254 119.77 523.254 123.072C523.254 126.374 525.935 129.052 529.243 129.052C532.551 129.052 535.232 126.374 535.232 123.072Z" fill="white"/>
<path fill-rule="evenodd" clip-rule="evenodd" d="M290.559 100.952C289.976 95.6627 285.778 91.4645 280.489 90.8811V88.2683H277.952V90.8811C272.663 91.4645 268.465 95.6627 267.881 100.952H265.269V103.488H267.881C268.465 108.777 272.663 112.975 277.952 113.559V116.172H280.489V113.559C285.778 112.975 289.976 108.777 290.559 103.488H293.172V100.952H290.559ZM279.22 97.1466C276.417 97.1466 274.147 99.417 274.147 102.22C274.147 105.023 276.417 107.293 279.22 107.293C282.023 107.293 284.294 105.023 284.294 102.22C284.294 99.417 282.023 97.1466 279.22 97.1466ZM270.342 102.22C270.342 107.128 274.312 111.098 279.22 111.098C284.129 111.098 288.099 107.128 288.099 102.22C288.099 97.3115 284.129 93.3416 279.22 93.3416C274.312 93.3416 270.342 97.3115 270.342 102.22Z" fill="#27AE60"/>
<path d="M317.631 100.636C317.631 104.917 316.729 108.112 314.926 110.223C313.122 112.334 310.392 113.389 306.736 113.389C305.448 113.389 304.472 113.319 303.808 113.181V109.495C304.64 109.703 305.512 109.807 306.424 109.807C307.96 109.807 309.223 109.584 310.214 109.138C311.205 108.682 311.963 107.974 312.488 107.012C313.013 106.041 313.316 104.709 313.395 103.014H313.217C312.642 103.946 311.978 104.6 311.225 104.976C310.472 105.353 309.53 105.541 308.401 105.541C306.508 105.541 305.017 104.937 303.927 103.728C302.837 102.509 302.292 100.819 302.292 98.6593C302.292 96.3307 302.951 94.4926 304.269 93.145C305.597 91.7875 307.4 91.1088 309.679 91.1088C311.284 91.1088 312.686 91.4853 313.885 92.2384C315.094 92.9915 316.021 94.0864 316.665 95.5232C317.309 96.95 317.631 98.6544 317.631 100.636ZM309.768 94.7949C308.817 94.7949 308.074 95.1219 307.539 95.7758C307.004 96.4298 306.736 97.3712 306.736 98.5999C306.736 99.6502 306.979 100.483 307.464 101.097C307.95 101.711 308.688 102.018 309.679 102.018C310.61 102.018 311.408 101.716 312.072 101.112C312.736 100.497 313.068 99.7939 313.068 99.0012C313.068 97.822 312.756 96.8262 312.131 96.0137C311.517 95.2011 310.729 94.7949 309.768 94.7949Z" fill="#0E2435"/>
<path d="M334.108 100.636C334.108 104.917 333.206 108.112 331.403 110.223C329.599 112.334 326.869 113.389 323.213 113.389C321.925 113.389 320.949 113.319 320.285 113.181V109.495C321.117 109.703 321.989 109.807 322.901 109.807C324.437 109.807 325.7 109.584 326.691 109.138C327.682 108.682 328.44 107.974 328.965 107.012C329.49 106.041 329.792 104.709 329.872 103.014H329.693C329.119 103.946 328.455 104.6 327.702 104.976C326.949 105.353 326.007 105.541 324.878 105.541C322.985 105.541 321.494 104.937 320.404 103.728C319.314 102.509 318.769 100.819 318.769 98.6593C318.769 96.3307 319.428 94.4926 320.746 93.145C322.073 91.7875 323.877 91.1088 326.156 91.1088C327.761 91.1088 329.163 91.4853 330.362 92.2384C331.571 92.9915 332.498 94.0864 333.142 95.5232C333.786 96.95 334.108 98.6544 334.108 100.636ZM326.245 94.7949C325.294 94.7949 324.551 95.1219 324.016 95.7758C323.48 96.4298 323.213 97.3712 323.213 98.5999C323.213 99.6502 323.456 100.483 323.941 101.097C324.427 101.711 325.165 102.018 326.156 102.018C327.087 102.018 327.885 101.716 328.549 101.112C329.213 100.497 329.545 99.7939 329.545 99.0012C329.545 97.822 329.233 96.8262 328.608 96.0137C327.994 95.2011 327.206 94.7949 326.245 94.7949Z" fill="#0E2435"/>
<path d="M336.004 110.966C336.004 110.134 336.227 109.505 336.673 109.078C337.118 108.652 337.767 108.439 338.62 108.439C339.442 108.439 340.076 108.657 340.522 109.093C340.978 109.529 341.206 110.154 341.206 110.966C341.206 111.749 340.978 112.368 340.522 112.824C340.066 113.27 339.432 113.493 338.62 113.493C337.787 113.493 337.143 113.275 336.687 112.839C336.232 112.393 336.004 111.769 336.004 110.966Z" fill="#0E2435"/>
<path d="M354.606 113.092H350.013V100.517L350.058 98.4512L350.132 96.192C349.369 96.955 348.839 97.4554 348.542 97.6932L346.045 99.6997L343.83 96.9352L350.831 91.3614H354.606V113.092Z" fill="#0E2435"/>
<path d="M363.19 97.8716C363.19 99.13 363.299 100.071 363.517 100.696C363.745 101.31 364.107 101.617 364.602 101.617C365.554 101.617 366.029 100.369 366.029 97.8716C366.029 95.3943 365.554 94.1557 364.602 94.1557C364.107 94.1557 363.745 94.4629 363.517 95.0773C363.299 95.6817 363.19 96.6131 363.19 97.8716ZM369.775 97.8418C369.775 100.121 369.334 101.835 368.452 102.985C367.57 104.124 366.277 104.694 364.573 104.694C362.938 104.694 361.674 104.109 360.783 102.94C359.891 101.761 359.445 100.061 359.445 97.8418C359.445 93.3135 361.154 91.0493 364.573 91.0493C366.247 91.0493 367.531 91.6389 368.422 92.818C369.324 93.9873 369.775 95.6619 369.775 97.8418ZM380.001 91.3614L367.947 113.092H364.379L376.434 91.3614H380.001ZM378.41 106.552C378.41 107.81 378.519 108.751 378.737 109.376C378.965 109.99 379.327 110.297 379.822 110.297C380.774 110.297 381.249 109.049 381.249 106.552C381.249 104.075 380.774 102.836 379.822 102.836C379.327 102.836 378.965 103.143 378.737 103.757C378.519 104.362 378.41 105.293 378.41 106.552ZM384.995 106.522C384.995 108.791 384.554 110.5 383.672 111.65C382.79 112.789 381.497 113.359 379.793 113.359C378.158 113.359 376.894 112.774 376.003 111.605C375.111 110.426 374.665 108.732 374.665 106.522C374.665 101.994 376.374 99.7295 379.793 99.7295C381.467 99.7295 382.751 100.319 383.642 101.498C384.544 102.667 384.995 104.342 384.995 106.522Z" fill="#0E2435"/>
<defs>
<filter id="filter0_d" x="230.01" y="56.9548" width="181.19" height="79.8351" filterUnits="userSpaceOnUse" color-interpolation-filters="sRGB">
<feFlood flood-opacity="0" result="BackgroundImageFix"/>
<feColorMatrix in="SourceAlpha" type="matrix" values="0 0 0 0 0 0 0 0 0 0 0 0 0 0 0 0 0 0 127 0"/>
<feMorphology radius="23" operator="erode" in="SourceAlpha" result="effect1_dropShadow"/>
<feOffset dx="-5" dy="-5"/>
<feGaussianBlur stdDeviation="19.5"/>
<feColorMatrix type="matrix" values="0 0 0 0 0.054902 0 0 0 0 0.141176 0 0 0 0 0.207843 0 0 0 0.47 0"/>
<feBlend mode="normal" in2="BackgroundImageFix" result="effect1_dropShadow"/>
<feBlend mode="normal" in="SourceGraphic" in2="effect1_dropShadow" result="shape"/>
</filter>
<filter id="filter1_d" x="83.374" y="176.758" width="42.3134" height="42.2662" filterUnits="userSpaceOnUse" color-interpolation-filters="sRGB">
<feFlood flood-opacity="0" result="BackgroundImageFix"/>
<feColorMatrix in="SourceAlpha" type="matrix" values="0 0 0 0 0 0 0 0 0 0 0 0 0 0 0 0 0 0 127 0"/>
<feOffset dx="-6" dy="-4"/>
<feGaussianBlur stdDeviation="3.5"/>
<feColorMatrix type="matrix" values="0 0 0 0 0.054902 0 0 0 0 0.141176 0 0 0 0 0.207843 0 0 0 0.2 0"/>
<feBlend mode="normal" in2="BackgroundImageFix" result="effect1_dropShadow"/>
<feBlend mode="normal" in="SourceGraphic" in2="effect1_dropShadow" result="shape"/>
</filter>
<filter id="filter2_d" x="525.499" y="121.313" width="42.3134" height="42.2662" filterUnits="userSpaceOnUse" color-interpolation-filters="sRGB">
<feFlood flood-opacity="0" result="BackgroundImageFix"/>
<feColorMatrix in="SourceAlpha" type="matrix" values="0 0 0 0 0 0 0 0 0 0 0 0 0 0 0 0 0 0 127 0"/>
<feOffset dx="-6" dy="-4"/>
<feGaussianBlur stdDeviation="3.5"/>
<feColorMatrix type="matrix" values="0 0 0 0 0.054902 0 0 0 0 0.141176 0 0 0 0 0.207843 0 0 0 0.2 0"/>
<feBlend mode="normal" in2="BackgroundImageFix" result="effect1_dropShadow"/>
<feBlend mode="normal" in="SourceGraphic" in2="effect1_dropShadow" result="shape"/>
</filter>
<filter id="filter3_d" x="256.632" y="190.891" width="42.3134" height="42.2662" filterUnits="userSpaceOnUse" color-interpolation-filters="sRGB">
<feFlood flood-opacity="0" result="BackgroundImageFix"/>
<feColorMatrix in="SourceAlpha" type="matrix" values="0 0 0 0 0 0 0 0 0 0 0 0 0 0 0 0 0 0 127 0"/>
<feOffset dx="5" dy="-4"/>
<feGaussianBlur stdDeviation="3.5"/>
<feColorMatrix type="matrix" values="0 0 0 0 0.054902 0 0 0 0 0.141176 0 0 0 0 0.207843 0 0 0 0.2 0"/>
<feBlend mode="normal" in2="BackgroundImageFix" result="effect1_dropShadow"/>
<feBlend mode="normal" in="SourceGraphic" in2="effect1_dropShadow" result="shape"/>
</filter>
<linearGradient id="paint0_linear" x1="-84.5501" y1="73.6061" x2="-84.5501" y2="244.846" gradientUnits="userSpaceOnUse">
<stop stop-color="#2F80ED"/>
<stop offset="1" stop-color="#2F80ED" stop-opacity="0"/>
</linearGradient>
</defs>
</svg>
