<svg width="1945" height="789" viewBox="0 0 1945 789" fill="none" xmlns="http://www.w3.org/2000/svg">
<rect width="1944" height="789" fill="#071926"/>
<path fill-rule="evenodd" clip-rule="evenodd" d="M1345.7 91H1135.3C1120.83 91 1109.13 102.835 1109.13 117.3L1109 275.1C1109 289.565 1120.83 301.4 1135.3 301.4H1345.7C1360.16 301.4 1372 289.565 1372 275.1V117.3C1372 102.835 1360.16 91 1345.7 91ZM1135.3 275.1V143.6L1240.5 209.35L1345.7 143.6V275.1H1135.3ZM1135.3 117.3L1240.5 183.05L1345.7 117.3H1135.3Z" fill="#0E2435"/>
<path fill-rule="evenodd" clip-rule="evenodd" d="M270.1 255C249.695 255 233.185 271.695 233.185 292.1L233 626L307.2 551.8H566.9C587.305 551.8 604 535.105 604 514.7V292.1C604 271.695 587.305 255 566.9 255H270.1ZM270.1 292.1H566.9V514.7H291.804L270.1 536.403V292.1ZM529.8 440.5H307.2V477.6H529.8V440.5ZM307.2 384.85H529.8V421.95H307.2V384.85ZM529.8 329.2H307.2V366.3H529.8V329.2Z" fill="#0E2435"/>
<path fill-rule="evenodd" clip-rule="evenodd" d="M1871.18 245L1944.14 318.143L1871.18 391.286V336.429H1743V299.857H1871.18V245ZM1615 427.857L1687.96 354.714V409.571H1816.14V446.143H1687.96V501L1615 427.857Z" fill="#0E2435"/>
<path d="M190 613C173.2 629.4 127.667 683.167 107 708H382L527.5 661.5C522.833 617.333 512.8 524.1 510 504.5C506.5 480 474.5 438.5 415.5 462.5C356.5 486.5 343.5 651 291 617.5C238.5 584 211 592.5 190 613Z" fill="#6FCF97" fill-opacity="0.23"/>
<path d="M365.5 627C333.9 665.8 266 674.5 236 674V729H500C500.5 704 498.8 651 488 639C474.5 624 405 578.5 365.5 627Z" fill="#6FCF97"/>
<path d="M333 729H41.5C53 657.5 96 669.5 117 682.5C138 695.5 150 674 160.5 664C171 654 194.5 634 217 655C239.5 676 247 659.5 271 664C290.2 667.6 320.333 708.833 333 729Z" fill="#27AE60"/>
<path d="M1610.5 548C1627.5 612 1657 692 1723 727.5H1055.5L962.5 574L1029 411C1078.17 396.5 1192.2 359.1 1255 325.5C1333.5 283.5 1411.5 452.5 1438.5 518.5C1465.5 584.5 1512.5 559.5 1526 536.5C1539.5 513.5 1593.5 484 1610.5 548Z" fill="#6FCF97" fill-opacity="0.23"/>
<path d="M1313.5 698C1316.3 701.6 1337.67 719.833 1348 728.5H1039L1035 722L1102 661L1172.5 638.5C1207.18 630.077 1211.92 638.838 1221.73 656.998L1222 657.5C1232 676 1248 682 1273.5 678C1299 674 1310 693.5 1313.5 698Z" fill="#6FCF97"/>
<path d="M1281 189H567.324C557.305 189 548.439 195.485 545.404 205.033L398.282 667.942C394.183 680.84 403.809 694 417.342 694H1142.68C1152.37 694 1160.92 687.656 1163.73 678.379L1303.01 218.669C1307.49 203.899 1296.43 189 1281 189Z" fill="#173A56"/>
<path d="M1287 727.5H1564C1552 723 1545 713.5 1527.5 687C1510 660.5 1501.5 664.5 1491.5 664.5C1481.5 664.5 1465 682.5 1448 663C1431 643.5 1417 643 1397 644C1381 644.8 1317 700 1287 727.5Z" fill="#27AE60"/>
<path d="M1274.08 205H577.212C570.238 205 564.068 209.517 561.96 216.164L420.955 660.873C418.502 668.61 424.277 676.5 432.394 676.5H1133.42C1139.11 676.5 1144.15 672.789 1145.83 667.345L1284.59 219.254C1286.78 212.176 1281.49 205 1274.08 205Z" fill="#D5DDE4"/>
<path d="M1246 278.5C1248.8 281.3 1252.17 295 1253.5 301.5L1247 309.5L1234.5 295L1230 283C1226.5 282 1232.5 272.5 1233 275C1233.4 277 1239.17 283.833 1242 287C1243 285.833 1244.8 283.4 1244 283C1243 282.5 1239 278 1239.5 277C1240 276 1242.5 275 1246 278.5Z" fill="#EED6BD"/>
<g filter="url(#filter0_d)">
<path d="M815.13 312.5H575.216C568.241 312.5 562.069 317.019 559.963 323.67L463.947 626.877C461.497 634.613 467.273 642.5 475.387 642.5H720.123C725.398 642.5 730.054 639.056 731.598 634.012L825.648 326.719C827.812 319.649 822.524 312.5 815.13 312.5Z" fill="white"/>
<path d="M815.13 312.5H575.216C568.241 312.5 562.069 317.019 559.963 323.67L463.947 626.877C461.497 634.613 467.273 642.5 475.387 642.5H720.123C725.398 642.5 730.054 639.056 731.598 634.012L825.648 326.719C827.812 319.649 822.524 312.5 815.13 312.5Z" stroke="#D5DDE4"/>
</g>
<g filter="url(#filter1_d)">
<path d="M1219.63 279H874.808C870.455 279 866.602 281.815 865.28 285.962L814.994 443.677C813.76 447.548 816.648 451.5 820.711 451.5H1169.03C1171.68 451.5 1174.02 449.758 1174.78 447.216L1223.46 284.144C1224.23 281.579 1222.31 279 1219.63 279Z" fill="white"/>
<path d="M1219.63 279H874.808C870.455 279 866.602 281.815 865.28 285.962L814.994 443.677C813.76 447.548 816.648 451.5 820.711 451.5H1169.03C1171.68 451.5 1174.02 449.758 1174.78 447.216L1223.46 284.144C1224.23 281.579 1222.31 279 1219.63 279Z" stroke="#D5DDE4"/>
</g>
<g filter="url(#filter2_d)">
<path d="M1162.13 470H817.308C812.955 470 809.102 472.815 807.78 476.962L757.494 634.677C756.26 638.548 759.148 642.5 763.211 642.5H1111.53C1114.18 642.5 1116.52 640.758 1117.28 638.216L1165.96 475.144C1166.73 472.579 1164.81 470 1162.13 470Z" fill="white"/>
<path d="M1162.13 470H817.308C812.955 470 809.102 472.815 807.78 476.962L757.494 634.677C756.26 638.548 759.148 642.5 763.211 642.5H1111.53C1114.18 642.5 1116.52 640.758 1117.28 638.216L1165.96 475.144C1166.73 472.579 1164.81 470 1162.13 470Z" stroke="#D5DDE4"/>
</g>
<path d="M1274.22 205H577.179C570.221 205 564.061 209.497 561.94 216.124L557.5 230H1281.5L1284.75 219.161C1286.87 212.103 1281.58 205 1274.22 205Z" fill="#435A70"/>
<path d="M1252 296C1256.4 306.4 1272.5 320 1280 325.5L1270 343C1262 335.8 1248 314 1242 304L1252 296Z" fill="#5CA17A"/>
<path d="M569.5 345L554 397H600L616 345H569.5Z" fill="#2F80ED"/>
<path d="M549.5 408L534 460H580L596 408H549.5Z" fill="#6FCF97"/>
<path d="M530.5 471L515 523H561L577 471H530.5Z" fill="#168342"/>
<path d="M511.5 534L496 586H542L558 534H511.5Z" fill="#168342"/>
<path d="M627.5 345L612 397H658L674 345H627.5Z" fill="#F2C94C"/>
<path d="M607.5 408L592 460H638L654 408H607.5Z" fill="#2F80ED"/>
<path d="M588.5 471L573 523H619L635 471H588.5Z" fill="#6FCF97"/>
<path d="M569.5 534L554 586H600L616 534H569.5Z" fill="#168342"/>
<path d="M685.5 345L670 397H716L732 345H685.5Z" fill="#FB9B0B"/>
<path d="M665.5 408L650 460H696L712 408H665.5Z" fill="#F2C94C"/>
<path d="M646.5 471L631 523H677L693 471H646.5Z" fill="#2F80ED"/>
<path d="M627.5 534L612 586H658L674 534H627.5Z" fill="#6FCF97"/>
<path d="M743.5 345L728 397H774L790 345H743.5Z" fill="#EB5757"/>
<path d="M723.5 408L708 460H754L770 408H723.5Z" fill="#FB9B0B"/>
<path d="M704.5 471L689 523H735L751 471H704.5Z" fill="#F2C94C"/>
<path d="M685.5 534L670 586H716L732 534H685.5Z" fill="#2F80ED"/>
<g filter="url(#filter3_d)">
<path d="M1251.21 273H1014.4C1010 273 1006.12 275.874 1004.84 280.08L974.867 378.248C973.69 382.104 976.574 386 980.605 386H1219.96C1222.65 386 1225 384.217 1225.74 381.635L1255.06 278.09C1255.78 275.537 1253.86 273 1251.21 273Z" fill="#EB5757"/>
</g>
<circle cx="587" cy="218" r="4" fill="#EB5757"/>
<circle cx="605" cy="218" r="4" fill="#F2C94C"/>
<circle cx="623" cy="218" r="4" fill="#27AE60"/>
<g filter="url(#filter4_d)">
<path d="M829.743 258H590.946C582.139 258 575 265.139 575 273.946C575 281.432 581.068 287.5 588.554 287.5H825.74C834.808 287.5 842.244 280.312 842.551 271.25C842.796 264.006 836.991 258 829.743 258Z" fill="white"/>
<path d="M829.743 258H590.946C582.139 258 575 265.139 575 273.946C575 281.432 581.068 287.5 588.554 287.5H825.74C834.808 287.5 842.244 280.312 842.551 271.25C842.796 264.006 836.991 258 829.743 258Z" stroke="#D5DDE4"/>
</g>
<path fill-rule="evenodd" clip-rule="evenodd" d="M831.946 590.87C846.515 606.474 875.098 603.462 895.787 584.144C916.476 564.826 921.437 536.517 906.868 520.913C892.298 505.31 863.715 508.321 843.026 527.639C822.337 546.957 817.376 575.267 831.946 590.87ZM825.286 597.089C842.446 615.466 876.11 611.92 900.477 589.167C924.844 566.415 930.687 533.072 913.527 514.695C896.368 496.317 862.704 499.864 838.336 522.616C813.969 545.369 808.126 578.711 825.286 597.089Z" fill="#EAF0F5"/>
<path fill-rule="evenodd" clip-rule="evenodd" d="M890.731 400.451C905.3 416.054 933.883 413.043 954.572 393.725C975.261 374.407 980.222 346.097 965.653 330.494C951.083 314.89 922.5 317.902 901.811 337.22C881.122 356.538 876.161 384.847 890.731 400.451ZM884.071 406.669C901.231 425.047 934.895 421.5 959.262 398.748C983.629 375.995 989.472 342.653 972.312 324.275C955.153 305.898 921.489 309.445 897.121 332.197C872.754 354.949 866.911 388.292 884.071 406.669Z" fill="#EAF0F5"/>
<mask id="mask0" mask-type="alpha" maskUnits="userSpaceOnUse" x="815" y="502" width="109" height="107">
<path fill-rule="evenodd" clip-rule="evenodd" d="M831.73 590.87C846.3 606.474 874.882 603.462 895.571 584.144C916.261 564.826 921.222 536.517 906.652 520.913C892.082 505.31 863.5 508.321 842.811 527.639C822.121 546.957 817.161 575.267 831.73 590.87ZM825.07 597.089C842.23 615.466 875.894 611.92 900.261 589.167C924.628 566.415 930.471 533.072 913.312 514.695C896.152 496.317 862.488 499.864 838.121 522.616C813.754 545.369 807.911 578.711 825.07 597.089Z" fill="#C4C4C4"/>
</mask>
<g mask="url(#mask0)">
<path d="M855 506L882 500L908.5 503L926 512L931 538L923 563.5L905.5 557L908.5 538L891 519.5H869.5L858 529L840 541L830.5 557L833 580.5L848.5 594.5L861 596.5L855 613.5H846.5L818 602.5C814 596.167 806 582.9 806 580.5C806 578.1 809.333 563.833 811 557L822 529L855 506Z" fill="#27AE60"/>
</g>
<circle cx="917" cy="558" r="8" fill="#0E2435" stroke="white" stroke-width="6"/>
<mask id="mask1" mask-type="alpha" maskUnits="userSpaceOnUse" x="874" y="312" width="109" height="107">
<path fill-rule="evenodd" clip-rule="evenodd" d="M890.73 400.451C905.3 416.054 933.882 413.043 954.571 393.725C975.261 374.407 980.222 346.097 965.652 330.494C951.082 314.89 922.5 317.902 901.811 337.22C881.121 356.538 876.161 384.847 890.73 400.451ZM884.07 406.669C901.23 425.047 934.894 421.5 959.261 398.748C983.628 375.995 989.471 342.653 972.312 324.275C955.152 305.898 921.488 309.445 897.121 332.197C872.754 354.949 866.911 388.292 884.07 406.669Z" fill="#C4C4C4"/>
</mask>
<g mask="url(#mask1)">
<path d="M865 390.081C865 387.681 868.333 373.414 870 366.581L887 373.5L892 390.081L907.5 404.081L920 406.081L914 423.081H905.5L877 412.081C873 405.747 865 392.481 865 390.081Z" fill="#EB5757"/>
</g>
<circle cx="880" cy="368" r="8" fill="#0E2435" stroke="white" stroke-width="6"/>
<path d="M1101 318H1030.5C1027.74 318 1025.5 315.761 1025.5 313C1025.5 310.239 1027.74 308 1030.5 308H1101C1103.76 308 1106 310.239 1106 313C1106 315.761 1103.76 318 1101 318Z" fill="white"/>
<path d="M1198 338H1024C1021.24 338 1019 335.761 1019 333C1019 330.239 1021.24 328 1024 328H1198C1200.76 328 1203 330.239 1203 333C1203 335.761 1200.76 338 1198 338Z" fill="white"/>
<path d="M1189 359H1015C1012.24 359 1010 356.761 1010 354C1010 351.239 1012.24 349 1015 349H1189C1191.76 349 1194 351.239 1194 354C1194 356.761 1191.76 359 1189 359Z" fill="white"/>
<path d="M1035 527H964.5C961.739 527 959.5 524.761 959.5 522C959.5 519.239 961.739 517 964.5 517H1035C1037.76 517 1040 519.239 1040 522C1040 524.761 1037.76 527 1035 527Z" fill="#173A56"/>
<path d="M1129 555H955C952.239 555 950 552.761 950 550C950 547.239 952.239 545 955 545H1129C1131.76 545 1134 547.239 1134 550C1134 552.761 1131.76 555 1129 555Z" fill="#173A56"/>
<path d="M1119 584H945C942.239 584 940 581.761 940 579C940 576.239 942.239 574 945 574H1119C1121.76 574 1124 576.239 1124 579C1124 581.761 1121.76 584 1119 584Z" fill="#173A56"/>
<path d="M630 619H562C559.239 619 557 616.761 557 614C557 611.239 559.239 609 562 609H630C632.761 609 635 611.239 635 614C635 616.761 632.761 619 630 619Z" fill="#173A56"/>
<path d="M1136 694H547V729H1103C1121.23 729 1136 714.225 1136 696V694Z" fill="#0E2435"/>
<path d="M593.132 275.606C595.71 277.389 599.242 276.443 601.069 273.802C602.897 271.161 602.538 267.522 599.961 265.738C597.384 263.955 593.852 264.901 592.024 267.543C590.196 270.184 590.555 273.823 593.132 275.606Z" stroke="#0E2435" stroke-width="2"/>
<rect x="600.648" y="274" width="6.28379" height="2" rx="1" transform="rotate(55.5107 600.648 274)" fill="#0E2435"/>
<path d="M1305 309V294.5L1309 288.5L1318 293.5L1320.5 311L1305 309Z" fill="#EED6BD"/>
<path d="M1194 375.554C1206.5 368.554 1221 374.054 1221.5 374.054C1223.33 378.054 1220.13 386.955 1209.5 390.054C1197.5 393.554 1190 388.721 1189 386.054C1191 386.054 1204.5 379.554 1206 377.554C1207.2 375.954 1198.17 376.887 1193.5 377.554L1194 375.554Z" fill="#EED6BD"/>
<path d="M1305 304.5V294.5L1307 290.5L1317 287L1318.5 297L1305 304.5Z" fill="#CDA78A"/>
<path d="M1291 280.5C1292.2 279.3 1291.5 274.667 1291 272.5C1292.5 273.5 1305 274 1310.5 272.5C1314.9 271.3 1316 277.333 1316 280.5C1314.83 282.333 1312 287.1 1310 291.5C1307.5 297 1299 299 1295 299.5C1291 300 1291.5 295.5 1292 294.5C1292.5 293.5 1292 289 1291 289.5C1290.2 289.9 1287.33 289.333 1286 289C1287.17 286.667 1289.8 281.7 1291 280.5Z" fill="#EED6BD"/>
<path d="M1296 276.5C1285.5 273 1282.5 266.5 1284.5 263C1287.17 263.333 1293.1 263.8 1295.5 263C1298.5 262 1321.5 257 1322 274C1322.5 291 1319.5 297.5 1314 298C1309.6 298.4 1307.5 290.167 1307 286C1308.5 285.5 1311.7 283.8 1312.5 281C1313.3 278.2 1311.17 277.167 1310 277C1308.83 278 1304.4 279.3 1296 276.5Z" fill="#9F3F29"/>
<path d="M1354 282L1481.5 729" stroke="#435A70" stroke-width="6" stroke-linecap="round"/>
<path d="M1438 282L1565.5 729" stroke="#435A70" stroke-width="6" stroke-linecap="round"/>
<path d="M1551.5 680.5H1468" stroke="#435A70" stroke-width="6" stroke-linecap="round"/>
<path d="M1541.5 646H1458" stroke="#435A70" stroke-width="6" stroke-linecap="round"/>
<path d="M1530 611L1452 611" stroke="#435A70" stroke-width="6" stroke-linecap="round"/>
<path d="M1518 574L1440 574" stroke="#435A70" stroke-width="6" stroke-linecap="round"/>
<path d="M1507 537L1429 537" stroke="#435A70" stroke-width="6" stroke-linecap="round"/>
<path d="M1500 502L1422 502" stroke="#435A70" stroke-width="6" stroke-linecap="round"/>
<path d="M1488 466L1410 466" stroke="#435A70" stroke-width="6" stroke-linecap="round"/>
<path d="M1475 430L1397 430" stroke="#435A70" stroke-width="6" stroke-linecap="round"/>
<path d="M1468 395L1390 395" stroke="#435A70" stroke-width="6" stroke-linecap="round"/>
<path d="M1455 359L1377 359" stroke="#435A70" stroke-width="6" stroke-linecap="round"/>
<path d="M1449 323L1426 323" stroke="#435A70" stroke-width="6" stroke-linecap="round"/>
<path d="M1226 729L1353.5 282" stroke="#2F80ED" stroke-width="6" stroke-linecap="round"/>
<path d="M1310 729L1437.5 282" stroke="#2F80ED" stroke-width="6" stroke-linecap="round"/>
<path d="M1425 323L1345 323" stroke="#2F80ED" stroke-width="6" stroke-linecap="round"/>
<path d="M1415 358L1335 358" stroke="#2F80ED" stroke-width="6" stroke-linecap="round"/>
<path d="M1403 392.5L1325 392.5" stroke="#2F80ED" stroke-width="6" stroke-linecap="round"/>
<path d="M1394 430H1313" stroke="#2F80ED" stroke-width="6" stroke-linecap="round"/>
<path d="M1380 466.5L1302 466.5" stroke="#2F80ED" stroke-width="6" stroke-linecap="round"/>
<path d="M1373 501L1292 501" stroke="#2F80ED" stroke-width="6" stroke-linecap="round"/>
<path d="M1361 538L1281 538" stroke="#2F80ED" stroke-width="6" stroke-linecap="round"/>
<path d="M1354 573L1271 573" stroke="#2F80ED" stroke-width="6" stroke-linecap="round"/>
<path d="M1344 609L1262 609" stroke="#2F80ED" stroke-width="6" stroke-linecap="round"/>
<path d="M1333 645L1250 645" stroke="#2F80ED" stroke-width="6" stroke-linecap="round"/>
<path d="M1322 680L1242 680" stroke="#2F80ED" stroke-width="6" stroke-linecap="round"/>
<path d="M1278 606L1281.5 586H1287.5L1289.5 600C1291.1 600 1295.17 604 1297 606H1278Z" fill="#83450D"/>
<path d="M1326 570L1329.5 550H1337.5L1339.5 564C1341.1 564 1348.17 568 1350 570H1326Z" fill="#83450D"/>
<path d="M1101.66 704H1070.71C1069.72 704 1068.89 704.716 1068.73 705.688L1067.87 711.188C1067.67 712.402 1068.61 713.5 1069.84 713.5H1100.79C1101.78 713.5 1102.61 712.784 1102.77 711.812L1103.63 706.312C1103.83 705.098 1102.89 704 1101.66 704Z" fill="black"/>
<path d="M860 694H116C116 713.33 131.67 729 151 729H827C845.225 729 860 714.225 860 696V694Z" fill="#173A56"/>
<path d="M563 694H343V696C343 702.075 347.925 707 354 707H550C557.18 707 563 701.18 563 694Z" fill="#0E2435"/>
<path d="M1283.5 439.5C1279.5 412.3 1284.5 394.5 1287.5 389L1330 390.5C1339.6 405.7 1351.33 429.5 1356 439.5C1355.2 484.3 1345 533.833 1340 553H1324.5C1330.1 512.6 1332.17 473.167 1332.5 458.5L1312 429C1314 445 1300.5 542.667 1293.5 589.5H1276.5C1280 577 1288.5 473.5 1283.5 439.5Z" fill="#95BCDF"/>
<path d="M1324.5 392C1332.17 403.833 1348.1 430.1 1350.5 440.5C1352.9 450.9 1343.5 519.167 1338.5 552" stroke="#63809A" stroke-width="2"/>
<path d="M1309.5 471C1305.1 451 1303.33 421.333 1303 409C1305.8 420.6 1310.83 428.167 1313 430.5L1309.5 471Z" fill="#63809A"/>
<path d="M1308 431.5L1306.5 446.5C1305.17 461.833 1302.1 495.3 1300.5 506.5C1298.5 520.5 1294 566 1290 588" stroke="#63809A" stroke-width="2"/>
<path d="M1284.5 393L1279 348.5L1295 330L1291 393H1284.5Z" fill="#5CA27A"/>
<path d="M1219 383.012L1217 372.512C1263.4 357.711 1281.67 325.678 1285 311.512C1302.5 306.012 1313 308.012 1328 310.512C1343 313.012 1336.5 344.512 1333.5 355.512C1331.1 364.312 1331.5 384.178 1332 393.012H1289.5L1295 331.012C1271.8 371.812 1234.67 382.678 1219 383.012Z" fill="#77CE9C"/>
<path d="M423.5 678L433 617C434.2 617.8 441.833 618.333 445.5 618.5L429 678H423.5Z" fill="#F9D8CD"/>
<path d="M448.5 682L458.5 618.5H445.5L444 682H448.5Z" fill="#F9D8CD"/>
<path d="M479 426C469.8 426.8 455.833 429.667 450 431L451 435L461 444C469.5 435.5 489 433.5 491.5 433C494 432.5 507 426 510 423.5C513 421 521 415.5 524.5 414.5C528 413.5 530.5 410.5 533 410C535.5 409.5 537.5 406 536 406C534.5 406 533.5 406.5 533 406C532.5 405.5 536.5 401 537.5 400.5C538.5 400 538.5 398 537.5 398C536.7 398 532.5 401.667 530.5 403.5C528.5 402.5 526 403 524.5 403.5C523.3 403.9 521.667 406.667 521 408C518.833 410.5 511.5 416 499.5 418C487.5 420 480.833 424.167 479 426Z" fill="#F9D8CD"/>
<path d="M453 432.5L452 416.5H445L440 426.5C444 429.3 450.333 431.667 453 432.5Z" fill="#F9D8CD"/>
<path d="M443 420L446 414L452 414.5L452.5 424L443 420Z" fill="#DEB1AB"/>
<path d="M1000 500.5C1000 487.3 995.667 478 993.5 475L990 473L958.5 474C951.7 481.2 952.333 500.438 953.5 509.158V612L952.5 676.5H964C964.333 668.333 965.2 650.7 966 645.5C966.8 640.3 966.333 619.333 966 609.5V508.5L973.5 511C975 528 980.5 548 980.5 556C980.5 564 983.5 599.5 984.5 606C985.3 611.2 989.167 654.833 991 676H1005C1003.33 623 1000 513.7 1000 500.5Z" fill="#072B4D"/>
<path d="M978.5 533L966 641.5C965.5 636.667 964.5 626.8 964.5 626C964.5 625.2 963.167 545.333 962.5 505.5L968 505L976.5 509L978.5 533Z" fill="#000325"/>
<path d="M461 404.5C456.2 401.7 453 393 452 389L444 393L439 394.5L436.5 404.5L439 415.5C442 418.5 448.5 417.5 455 417.5C461.5 417.5 458 408 458 407C458 406.2 460 405 461 404.5Z" fill="#F9D8CD"/>
<path d="M1080.5 392.5C1078.1 393.3 1076.17 397.833 1075.5 400L1078 406.5C1080 407.167 1086 407.6 1094 404C1102 400.4 1105.33 393.167 1106 390C1103.17 390.833 1097 392.7 1095 393.5C1092.5 394.5 1082.5 395.5 1086.5 393C1090.5 390.5 1089 385 1088 386.5C1087 388 1083.5 391.5 1080.5 392.5Z" fill="#76493E"/>
<path d="M954 397C954 395.4 958.667 382.667 961 376.5L971 380L969 393.5L954 397Z" fill="#E18D50"/>
<path d="M994.5 474.5H987.5L985 465L985.5 420.5L989 416.5L1003.5 422C1001.9 423.2 996.833 457.5 994.5 474.5Z" fill="#C98056"/>
<path d="M988.999 334C984.999 334.8 979.666 344.667 977.499 349.5L975.499 353C974.833 355.333 974.999 359.3 980.999 356.5C988.499 353 989.499 351.5 993.499 347C997.499 342.5 993.499 339.5 993.499 340.5C993.499 341.5 990.499 345 987.499 345.5C984.499 346 984.999 345 984.999 343.5C984.999 342.3 988.333 338.333 989.999 336.5C991.333 335.333 992.999 333.2 988.999 334Z" fill="#76493E"/>
<path d="M969 391.5V382L983 384.5V396.5L969 391.5Z" fill="#582F28"/>
<path d="M989 474.5H957C958.5 461.5 947 435.5 946.5 429.5C946 423.5 946 416 946.5 408.5C946.9 402.5 951 398 953 396.5C965 385.5 980.5 394.5 985 396.5C988.6 398.1 1016.83 408.167 1030.5 413C1035.3 413.4 1062.17 403.5 1075 398.5C1076.6 400.1 1079 404.833 1080 407C1073.5 412.167 1057.5 423.5 1045.5 427.5C1030.5 432.5 1027 432 1017 430.5C1009 429.3 995 422.333 989 419C985 440.2 987.333 464.833 989 474.5Z" fill="#F19857"/>
<path d="M992.5 368C984.5 366 981.5 358 981 353L972 360.5L963.5 365.5C963.5 368.5 964 375.7 966 380.5C968.5 386.5 976.5 391 988 387.5C997.2 384.7 995.5 380 993.5 378V376.5L992 376C992 375.5 991.8 374.4 991 374C990.2 373.6 990 372.167 990 371.5C992 371.1 992.5 369 992.5 368Z" fill="#76493E"/>
<path d="M965 385C963 382.2 957.833 374.833 955.5 371.5C950.3 367.1 953.333 363 955.5 361.5C953.5 352.5 979 336.5 982.5 348.5C986 360.5 975.5 367.5 970.5 369C965.5 370.5 970 377 974.5 378C979 379 976 383 973 385.5C970 388 967.5 388.5 965 385Z" fill="#1E0A07"/>
<path d="M432.5 622L433.5 613.5L459 617L457.5 624H446L445 622L444 624L432.5 622Z" fill="#DDB1AB"/>
<path d="M420 684.5C420 682.1 422.333 679.5 423.5 678.5H428.5V689L433 693H426L423 687L422 687.5V693H420V684.5Z" fill="black"/>
<path d="M443.5 693.5V682.5H448.5C449.3 682.5 451.167 687.167 452 689.5L457.5 692V693.5H449L446.5 689H445V693.5H443.5Z" fill="black"/>
<path d="M430 514.5C430 507.7 433 501.667 434.5 499.5H458C474 529.9 480.333 590.167 481.5 616.5C448.7 623.3 424.167 617.667 416 614C418.667 604.667 424.9 580.2 428.5 557C433 528 430 523 430 514.5Z" fill="#B657F1"/>
<path d="M437 506.5C436 527.667 431.7 578.2 422.5 611C427.167 614.333 445.2 619.4 480 613" stroke="#873FB3" stroke-width="2"/>
<path d="M442 616C444.333 587.333 448.5 525.2 446.5 506" stroke="#873FB3" stroke-width="2"/>
<path d="M466.5 615C465.167 587 460.4 525.9 452 505.5" stroke="#873FB3" stroke-width="2"/>
<path d="M460 496.5H432V500H460V496.5Z" fill="#01020C"/>
<path d="M454.5 433.5L438.5 426L430 428.5V449.5L433 471L435 485.5L434 496.5H458C458.833 482.333 460.6 452.7 461 447.5C461.4 442.3 456.833 436 454.5 433.5Z" fill="#B657F1"/>
<path d="M450.5 489.5L452 444L484.5 444.5L482 490.5L450.5 489.5Z" fill="#FBE8F5"/>
<path d="M442.5 477C438.9 468.2 436 451.333 435 444C435 436 436.5 433.5 442.5 433.5C447.3 433.5 448.5 439.833 448.5 443C450.9 461 454.5 469.167 456 471C457.6 471.4 470 464.5 476 461C475.5 456.5 479.5 450.5 482.5 450C485.5 449.5 486.5 451 486.5 452C486.5 452.8 485.5 453.667 485 454C486 455.5 488.5 458.5 481.5 464C474.5 469.5 463 481 458 485.5C454 489.1 450.667 488.667 449.5 488C448.667 488 446.1 485.8 442.5 477Z" fill="#F9D8CD"/>
<path d="M421.501 412C416.001 402 418.501 389 432.501 385L441.001 380C450.201 377.2 453.834 382.833 454.501 386C457.501 392.5 449.001 399.5 446.501 399.5C444.001 399.5 441.001 401 441.001 405C441.001 408.2 445.334 409 447.501 409C447.334 414.667 445.301 426.8 438.501 430C430.001 434 431.001 453 434.001 464C437.001 475 437.501 485 435.001 487.5C432.501 490 414.501 498 421.501 472C428.501 446 427.001 422 421.501 412Z" fill="#0E0720"/>
<path d="M962 676.5H954.5V686C952.1 686.8 948.833 690.667 947.5 692.5L947 694.5H962V676.5Z" fill="black"/>
<path d="M995 693V675.5L1003 675L1003.5 685.5C1010.3 685.9 1021.33 690.667 1026 693H995Z" fill="black"/>
<path d="M961.5 422.5C961.333 434.167 962.3 458.8 967.5 464C974 470.5 979 471 978 471C977.2 471 968.333 471 964 471" stroke="#C98056"/>
<path d="M1316.63 337C1316.79 348.667 1315.83 373.3 1310.63 378.5C1304.13 385 1299.13 385.5 1300.13 385.5C1300.93 385.5 1309.79 385.5 1314.13 385.5" stroke="#5CA17A"/>
<path d="M990 490C991.667 487.667 994.8 482.4 994 480L996 487L994 490L1002.5 673.5" stroke="#1E3EA0"/>
<path d="M963 491L970 502.5L977.5 505.5L984.5 542" stroke="#1E3EA0"/>
<line x1="-3.49691e-07" y1="732" x2="1921" y2="732" stroke="#D5DDE4" stroke-width="8"/>
<defs>
<filter id="filter0_d" x="458.878" y="311" width="411.759" height="379" filterUnits="userSpaceOnUse" color-interpolation-filters="sRGB">
<feFlood flood-opacity="0" result="BackgroundImageFix"/>
<feColorMatrix in="SourceAlpha" type="matrix" values="0 0 0 0 0 0 0 0 0 0 0 0 0 0 0 0 0 0 127 0"/>
<feOffset dx="20" dy="23"/>
<feGaussianBlur stdDeviation="12"/>
<feColorMatrix type="matrix" values="0 0 0 0 0.054902 0 0 0 0 0.141176 0 0 0 0 0.207843 0 0 0 0.08 0"/>
<feBlend mode="normal" in2="BackgroundImageFix" result="effect1_dropShadow"/>
<feBlend mode="normal" in="SourceGraphic" in2="effect1_dropShadow" result="shape"/>
</filter>
<filter id="filter1_d" x="810.206" y="277.5" width="457.928" height="221.5" filterUnits="userSpaceOnUse" color-interpolation-filters="sRGB">
<feFlood flood-opacity="0" result="BackgroundImageFix"/>
<feColorMatrix in="SourceAlpha" type="matrix" values="0 0 0 0 0 0 0 0 0 0 0 0 0 0 0 0 0 0 127 0"/>
<feOffset dx="20" dy="23"/>
<feGaussianBlur stdDeviation="12"/>
<feColorMatrix type="matrix" values="0 0 0 0 0.054902 0 0 0 0 0.141176 0 0 0 0 0.207843 0 0 0 0.08 0"/>
<feBlend mode="normal" in2="BackgroundImageFix" result="effect1_dropShadow"/>
<feBlend mode="normal" in="SourceGraphic" in2="effect1_dropShadow" result="shape"/>
</filter>
<filter id="filter2_d" x="752.706" y="468.5" width="457.928" height="221.5" filterUnits="userSpaceOnUse" color-interpolation-filters="sRGB">
<feFlood flood-opacity="0" result="BackgroundImageFix"/>
<feColorMatrix in="SourceAlpha" type="matrix" values="0 0 0 0 0 0 0 0 0 0 0 0 0 0 0 0 0 0 127 0"/>
<feOffset dx="20" dy="23"/>
<feGaussianBlur stdDeviation="12"/>
<feColorMatrix type="matrix" values="0 0 0 0 0.054902 0 0 0 0 0.141176 0 0 0 0 0.207843 0 0 0 0.08 0"/>
<feBlend mode="normal" in2="BackgroundImageFix" result="effect1_dropShadow"/>
<feBlend mode="normal" in="SourceGraphic" in2="effect1_dropShadow" result="shape"/>
</filter>
<filter id="filter3_d" x="974.601" y="269" width="320.611" height="153" filterUnits="userSpaceOnUse" color-interpolation-filters="sRGB">
<feFlood flood-opacity="0" result="BackgroundImageFix"/>
<feColorMatrix in="SourceAlpha" type="matrix" values="0 0 0 0 0 0 0 0 0 0 0 0 0 0 0 0 0 0 127 0"/>
<feOffset dx="20" dy="16"/>
<feGaussianBlur stdDeviation="10"/>
<feColorMatrix type="matrix" values="0 0 0 0 0.054902 0 0 0 0 0.141176 0 0 0 0 0.207843 0 0 0 0.26 0"/>
<feBlend mode="normal" in2="BackgroundImageFix" result="effect1_dropShadow"/>
<feBlend mode="normal" in="SourceGraphic" in2="effect1_dropShadow" result="shape"/>
</filter>
<filter id="filter4_d" x="570.5" y="256.5" width="316.558" height="78.5" filterUnits="userSpaceOnUse" color-interpolation-filters="sRGB">
<feFlood flood-opacity="0" result="BackgroundImageFix"/>
<feColorMatrix in="SourceAlpha" type="matrix" values="0 0 0 0 0 0 0 0 0 0 0 0 0 0 0 0 0 0 127 0"/>
<feOffset dx="20" dy="23"/>
<feGaussianBlur stdDeviation="12"/>
<feColorMatrix type="matrix" values="0 0 0 0 0.054902 0 0 0 0 0.141176 0 0 0 0 0.207843 0 0 0 0.05 0"/>
<feBlend mode="normal" in2="BackgroundImageFix" result="effect1_dropShadow"/>
<feBlend mode="normal" in="SourceGraphic" in2="effect1_dropShadow" result="shape"/>
</filter>
</defs>
</svg>
