<svg width="80" height="92" viewBox="0 0 80 92" fill="none" xmlns="http://www.w3.org/2000/svg">
<mask id="mask0" mask-type="alpha" maskUnits="userSpaceOnUse" x="0" y="0" width="80" height="81">
<path fill-rule="evenodd" clip-rule="evenodd" d="M40 75.4219C59.33 75.4219 75 59.7518 75 40.4219C75 21.0919 59.33 5.42188 40 5.42188C20.67 5.42188 5 21.0919 5 40.4219C5 59.7518 20.67 75.4219 40 75.4219ZM40 80.4219C62.0914 80.4219 80 62.5133 80 40.4219C80 18.3305 62.0914 0.421875 40 0.421875C17.9086 0.421875 0 18.3305 0 40.4219C0 62.5133 17.9086 80.4219 40 80.4219Z" fill="#0E2435"/>
</mask>
<g mask="url(#mask0)">
<path d="M-1 -0.578125H81V81.4219H-1V-0.578125Z" fill="#D5DDE4"/>
<path d="M-1 -0.578125H81V40.4219V62.9219L40 40.4219V81.4219H-1V-0.578125Z" fill="#2F80ED"/>
</g>
<path fill-rule="evenodd" clip-rule="evenodd" d="M12.5 40.4219C12.5 39.5934 13.1716 38.9219 14 38.9219H66C66.8284 38.9219 67.5 39.5934 67.5 40.4219C67.5 41.2503 66.8284 41.9219 66 41.9219H14C13.1716 41.9219 12.5 41.2503 12.5 40.4219Z" fill="#D5DDE4"/>
<path fill-rule="evenodd" clip-rule="evenodd" d="M32.0123 50.293C32.6357 49.7475 33.5834 49.8107 34.1289 50.4341L40 57.144L45.8712 50.4341C46.4167 49.8107 47.3643 49.7475 47.9878 50.293C48.6112 50.8385 48.6744 51.7862 48.1289 52.4096L41.8815 59.5496C40.8854 60.6879 39.1146 60.6879 38.1186 59.5496L31.8712 52.4096C31.3256 51.7862 31.3888 50.8385 32.0123 50.293Z" fill="#B30015"/>
<path fill-rule="evenodd" clip-rule="evenodd" d="M32.0123 30.5507C32.6357 31.0962 33.5834 31.0331 34.1289 30.4096L40 23.6997L45.8712 30.4096C46.4167 31.0331 47.3643 31.0962 47.9878 30.5507C48.6112 30.0052 48.6744 29.0575 48.1289 28.4341L41.8815 21.2942C40.8854 20.1559 39.1146 20.1558 38.1186 21.2942L31.8712 28.4341C31.3256 29.0575 31.3888 30.0052 32.0123 30.5507Z" fill="#27AE60"/>
<path d="M54 77.4219C54 85.1538 47.732 91.4219 40 91.4219C32.268 91.4219 26 85.1538 26 77.4219C26 69.6899 32.268 63.4219 40 63.4219C47.732 63.4219 54 69.6899 54 77.4219Z" fill="white"/>
<path d="M34.0648 74.0349C34.0648 74.8021 34.1293 75.3558 34.2583 75.696C34.3873 76.0363 34.5807 76.2064 34.8387 76.2064C35.0966 76.2064 35.2867 76.0396 35.4089 75.706C35.5379 75.3725 35.6024 74.8155 35.6024 74.0349C35.6024 73.2678 35.5379 72.7141 35.4089 72.3738C35.2867 72.0336 35.0966 71.8635 34.8387 71.8635C34.574 71.8635 34.3771 72.0369 34.2481 72.3838C34.1259 72.7307 34.0648 73.2811 34.0648 74.0349ZM38.6774 73.9949C38.6774 75.4626 38.3414 76.6 37.6693 77.4072C36.9973 78.2077 36.0402 78.608 34.798 78.608C33.6304 78.608 32.7038 78.1944 32.0182 77.3672C31.3394 76.5333 31 75.4092 31 73.9949C31 72.5273 31.3326 71.3998 31.9979 70.6127C32.6631 69.8188 33.5965 69.4219 34.798 69.4219C35.9859 69.4219 36.9294 69.8321 37.6286 70.6527C38.3278 71.4732 38.6774 72.5873 38.6774 73.9949ZM46.1002 69.632L37.8424 84.2618H34.8183L43.0761 69.632H46.1002ZM45.3875 79.8588C45.3875 80.626 45.4519 81.1797 45.5809 81.5199C45.7099 81.8602 45.9034 82.0303 46.1613 82.0303C46.4532 82.0303 46.6534 81.8368 46.7621 81.4499C46.8775 81.0563 46.9352 80.5259 46.9352 79.8588C46.9352 79.1917 46.8775 78.6647 46.7621 78.2778C46.6534 77.8842 46.4532 77.6874 46.1613 77.6874C45.8966 77.6874 45.6997 77.8608 45.5707 78.2077C45.4486 78.5546 45.3875 79.105 45.3875 79.8588ZM50 79.8188C50 81.2798 49.6606 82.4139 48.9818 83.2211C48.3098 84.0216 47.356 84.4219 46.1206 84.4219C44.953 84.4219 44.0264 84.0083 43.3408 83.181C42.662 82.3471 42.3226 81.2264 42.3226 79.8188C42.3226 78.3511 42.6552 77.2237 43.3205 76.4365C43.9857 75.6427 44.9191 75.2457 46.1206 75.2457C47.3085 75.2457 48.2521 75.656 48.9512 76.4766C49.6504 77.2971 50 78.4112 50 79.8188Z" fill="#0E2435"/>
</svg>
