<svg width="97" height="77" viewBox="0 0 97 77" fill="none" xmlns="http://www.w3.org/2000/svg">
<path d="M65.6154 73.4219C65.8278 73.4219 66 73.2497 66 73.0373C66 70.4883 63.9336 68.4219 61.3846 68.4219L35.6154 68.4219C33.0664 68.4219 31 70.4883 31 73.0373C31 73.2497 31.1722 73.4219 31.3846 73.4219L65.6154 73.4219Z" fill="#D5DDE4"/>
<path fill-rule="evenodd" clip-rule="evenodd" d="M65.2094 70.4532C65.366 70.6846 65.5022 70.931 65.6154 71.1898C65.8628 71.7555 66 72.3803 66 73.0373C66 73.2497 65.8278 73.4219 65.6154 73.4219L31.3846 73.4219C31.1722 73.4219 31 73.2497 31 73.0373C31 72.3803 31.1372 71.7555 31.3846 71.1898C31.4978 70.931 31.634 70.6846 31.7906 70.4532C31.7977 70.4427 31.8049 70.4323 31.812 70.4219C32.6444 69.2138 34.0374 68.4219 35.6154 68.4219L61.3846 68.4219C62.9626 68.4219 64.3556 69.2138 65.188 70.4219C65.1951 70.4323 65.2023 70.4427 65.2094 70.4532ZM61.3846 65.4219L35.6154 65.4219C31.4095 65.4219 28 68.8314 28 73.0373C28 74.9065 29.5153 76.4219 31.3846 76.4219L65.6154 76.4219C67.4846 76.4219 69 74.9066 69 73.0373C69 68.8314 65.5905 65.4219 61.3846 65.4219Z" fill="#0E2435"/>
<path d="M46 65.4219H51L51 14.4219H46L46 65.4219Z" fill="white"/>
<path fill-rule="evenodd" clip-rule="evenodd" d="M43 68.4219H54L54 11.4219H43L43 68.4219ZM46 65.4219L46 14.4219H51L51 65.4219H46Z" fill="#0E2435"/>
<path d="M86.5 8.42187C87.3284 8.42187 88 9.09345 88 9.92188C88 10.7503 87.3284 11.4219 86.5 11.4219L10.5 11.4219C9.67158 11.4219 9 10.7503 9 9.92187C9 9.09345 9.67158 8.42187 10.5 8.42187L86.5 8.42187Z" fill="#0E2435"/>
<path d="M13 8.42188H16V19.4219H13V8.42188Z" fill="#0E2435"/>
<path d="M81 8.42188H84V19.4219H81V8.42188Z" fill="#0E2435"/>
<path d="M56 34.4219C56.5523 34.4219 57 33.9742 57 33.4219L57 30.4219C57 29.8696 56.5523 29.4219 56 29.4219L41 29.4219C40.4477 29.4219 40 29.8696 40 30.4219L40 33.4219C40 33.9742 40.4477 34.4219 41 34.4219L56 34.4219Z" fill="#D5DDE4"/>
<path fill-rule="evenodd" clip-rule="evenodd" d="M60 33.4219L60 30.4219C60 28.2127 58.2091 26.4219 56 26.4219L41 26.4219C38.7909 26.4219 37 28.2127 37 30.4219L37 33.4219C37 35.631 38.7909 37.4219 41 37.4219L56 37.4219C58.2091 37.4219 60 35.631 60 33.4219ZM57 33.4219C57 33.9742 56.5523 34.4219 56 34.4219L41 34.4219C40.4477 34.4219 40 33.9742 40 33.4219L40 30.4219C40 29.8696 40.4477 29.4219 41 29.4219L56 29.4219C56.5523 29.4219 57 29.8696 57 30.4219L57 33.4219Z" fill="#0E2435"/>
<path d="M48.5 14.4219C51.5376 14.4219 54 11.9594 54 8.92187C54 5.88431 51.5376 3.42187 48.5 3.42187C45.4624 3.42187 43 5.88431 43 8.92188C43 11.9594 45.4624 14.4219 48.5 14.4219Z" fill="#D5DDE4"/>
<path fill-rule="evenodd" clip-rule="evenodd" d="M40 8.92188C40 13.6163 43.8056 17.4219 48.5 17.4219C53.1944 17.4219 57 13.6163 57 8.92188C57 4.22746 53.1944 0.421875 48.5 0.421875C43.8056 0.421876 40 4.22746 40 8.92188ZM54 8.92188C54 11.9594 51.5376 14.4219 48.5 14.4219C45.4624 14.4219 43 11.9594 43 8.92188C43 5.88431 45.4624 3.42187 48.5 3.42187C51.5376 3.42187 54 5.88431 54 8.92188Z" fill="#0E2435"/>
<path d="M48.5 11.4219C49.8807 11.4219 51 10.3026 51 8.92188C51 7.54116 49.8807 6.42188 48.5 6.42188C47.1193 6.42188 46 7.54116 46 8.92188C46 10.3026 47.1193 11.4219 48.5 11.4219Z" fill="#0E2435"/>
<path d="M3 20.4219C3 19.8696 3.44772 19.4219 4 19.4219H26C26.5523 19.4219 27 19.8696 27 20.4219V42.4219C27 42.9742 26.5523 43.4219 26 43.4219H4C3.44772 43.4219 3 42.9742 3 42.4219V20.4219Z" fill="#FEFAED"/>
<path fill-rule="evenodd" clip-rule="evenodd" d="M4 16.4219H26C28.2091 16.4219 30 18.2127 30 20.4219V42.4219C30 44.631 28.2091 46.4219 26 46.4219H4C1.79086 46.4219 0 44.631 0 42.4219V20.4219C0 18.2127 1.79086 16.4219 4 16.4219ZM4 19.4219C3.44772 19.4219 3 19.8696 3 20.4219V42.4219C3 42.9742 3.44772 43.4219 4 43.4219H26C26.5523 43.4219 27 42.9742 27 42.4219V20.4219C27 19.8696 26.5523 19.4219 26 19.4219H4Z" fill="#0E2435"/>
<path d="M70 20.4219C70 19.8696 70.4477 19.4219 71 19.4219H93C93.5523 19.4219 94 19.8696 94 20.4219V42.4219C94 42.9742 93.5523 43.4219 93 43.4219H71C70.4477 43.4219 70 42.9742 70 42.4219V20.4219Z" fill="#F7E5E8"/>
<path fill-rule="evenodd" clip-rule="evenodd" d="M71 16.4219H93C95.2091 16.4219 97 18.2127 97 20.4219V42.4219C97 44.631 95.2091 46.4219 93 46.4219H71C68.7909 46.4219 67 44.631 67 42.4219V20.4219C67 18.2127 68.7909 16.4219 71 16.4219ZM71 19.4219C70.4477 19.4219 70 19.8696 70 20.4219V42.4219C70 42.9742 70.4477 43.4219 71 43.4219H93C93.5523 43.4219 94 42.9742 94 42.4219V20.4219C94 19.8696 93.5523 19.4219 93 19.4219H71Z" fill="#0E2435"/>
<path d="M15.4875 29.9219C14.8725 28.1744 13.2075 26.9219 11.25 26.9219C8.7675 26.9219 6.75 28.9394 6.75 31.4219C6.75 33.9044 8.7675 35.9219 11.25 35.9219C13.2075 35.9219 14.8725 34.6694 15.4875 32.9219H18.75V35.9219H21.75V32.9219H23.25V29.9219H15.4875ZM11.25 32.9219C10.425 32.9219 9.75 32.2469 9.75 31.4219C9.75 30.5969 10.425 29.9219 11.25 29.9219C12.075 29.9219 12.75 30.5969 12.75 31.4219C12.75 32.2469 12.075 32.9219 11.25 32.9219Z" fill="#F2C94C"/>
<path d="M82 23.9219C77.86 23.9219 74.5 27.2819 74.5 31.4219C74.5 35.5619 77.86 38.9219 82 38.9219C86.14 38.9219 89.5 35.5619 89.5 31.4219C89.5 27.2819 86.14 23.9219 82 23.9219ZM82 37.4219C78.685 37.4219 76 34.7369 76 31.4219C76 30.0344 76.4725 28.7594 77.2675 27.7469L85.675 36.1544C84.6625 36.9494 83.3875 37.4219 82 37.4219ZM86.7325 35.0969L78.325 26.6894C79.3375 25.8944 80.6125 25.4219 82 25.4219C85.315 25.4219 88 28.1069 88 31.4219C88 32.8094 87.5275 34.0844 86.7325 35.0969Z" fill="#B30015"/>
</svg>
