<svg width="88" height="79" viewBox="0 0 88 79" fill="none" xmlns="http://www.w3.org/2000/svg">
<path d="M3 15.4219C3 14.8696 3.44772 14.4219 4 14.4219H73C73.5523 14.4219 74 14.8696 74 15.4219V74.4219C74 74.9742 73.5523 75.4219 73 75.4219H4C3.44772 75.4219 3 74.9742 3 74.4219V15.4219Z" fill="#D5DDE4"/>
<path fill-rule="evenodd" clip-rule="evenodd" d="M4 11.4219H73C75.2091 11.4219 77 13.2127 77 15.4219V74.4219C77 76.631 75.2091 78.4219 73 78.4219H4C1.79087 78.4219 0 76.631 0 74.4219V15.4219C0 13.2127 1.79087 11.4219 4 11.4219ZM4 14.4219C3.44772 14.4219 3 14.8696 3 15.4219V74.4219C3 74.9742 3.44772 75.4219 4 75.4219H73C73.5523 75.4219 74 74.9742 74 74.4219V15.4219C74 14.8696 73.5523 14.4219 73 14.4219H4Z" fill="#0E2435"/>
<path d="M12 4.42187C12 3.86959 12.4477 3.42188 13 3.42188H84C84.5523 3.42188 85 3.86959 85 4.42188V65.4219C85 65.9742 84.5523 66.4219 84 66.4219H13C12.4477 66.4219 12 65.9742 12 65.4219V4.42187Z" fill="white"/>
<path fill-rule="evenodd" clip-rule="evenodd" d="M13 0.421875H84C86.2091 0.421875 88 2.21273 88 4.42188V65.4219C88 67.631 86.2091 69.4219 84 69.4219H13C10.7909 69.4219 9 67.631 9 65.4219V4.42188C9 2.21274 10.7909 0.421875 13 0.421875ZM13 3.42188C12.4477 3.42188 12 3.86959 12 4.42188V65.4219C12 65.9742 12.4477 66.4219 13 66.4219H84C84.5523 66.4219 85 65.9742 85 65.4219V4.42188C85 3.86959 84.5523 3.42188 84 3.42188H13Z" fill="#0E2435"/>
<path d="M25 54.9219C25 56.8549 23.433 58.4219 21.5 58.4219C19.567 58.4219 18 56.8549 18 54.9219C18 52.9889 19.567 51.4219 21.5 51.4219C23.433 51.4219 25 52.9889 25 54.9219Z" fill="#B30015"/>
<path d="M25 42.9219C25 44.8549 23.433 46.4219 21.5 46.4219C19.567 46.4219 18 44.8549 18 42.9219C18 40.9889 19.567 39.4219 21.5 39.4219C23.433 39.4219 25 40.9889 25 42.9219Z" fill="#27AE60"/>
<mask id="mask0" mask-type="alpha" maskUnits="userSpaceOnUse" x="17" y="11" width="20" height="21">
<path fill-rule="evenodd" clip-rule="evenodd" d="M27 28.7552C31.0501 28.7552 34.3333 25.472 34.3333 21.4219C34.3333 17.3718 31.0501 14.0885 27 14.0885C22.9499 14.0885 19.6667 17.3718 19.6667 21.4219C19.6667 25.472 22.9499 28.7552 27 28.7552ZM27 31.4219C32.5228 31.4219 37 26.9447 37 21.4219C37 15.899 32.5228 11.4219 27 11.4219C21.4772 11.4219 17 15.899 17 21.4219C17 26.9447 21.4772 31.4219 27 31.4219Z" fill="#D5DDE4"/>
</mask>
<g mask="url(#mask0)">
<path d="M38.3335 33.4219H27.0002V22.0885H15.6668V10.0885H38.3335V33.4219Z" fill="#D5DDE4"/>
<path d="M15.6665 33.4219H26.9998V22.0885H38.3332V10.0885H15.6665V33.4219Z" fill="#2F80ED"/>
</g>
<path d="M61 54.9219C61 56.8549 59.433 58.4219 57.5 58.4219C55.567 58.4219 54 56.8549 54 54.9219C54 52.9889 55.567 51.4219 57.5 51.4219C59.433 51.4219 61 52.9889 61 54.9219Z" fill="#F2C94C"/>
<path d="M61 42.9219C61 44.8549 59.433 46.4219 57.5 46.4219C55.567 46.4219 54 44.8549 54 42.9219C54 40.9889 55.567 39.4219 57.5 39.4219C59.433 39.4219 61 40.9889 61 42.9219Z" fill="#FB9B0B"/>
<path d="M42 29.4219L42 19.4219L47 19.4219L47 29.4219L42 29.4219Z" fill="#27AE60"/>
<path d="M50 29.4219L50 15.4219L55 15.4219L55 29.4219L50 29.4219Z" fill="#2F80ED"/>
<path d="M58 29.4219L58 21.4219L63 21.4219L63 29.4219L58 29.4219Z" fill="#F2C94C"/>
<path d="M66 29.4219L66 23.4219L71 23.4219L71 29.4219L66 29.4219Z" fill="#FB9B0B"/>
<path d="M74 29.4219L74 27.4219L79 27.4219L79 29.4219L74 29.4219Z" fill="#B30015"/>
<path d="M65 40.4219H78C78.5523 40.4219 79 40.8696 79 41.4219C79 41.9742 78.5523 42.4219 78 42.4219H65C64.4477 42.4219 64 41.9742 64 41.4219C64 40.8696 64.4477 40.4219 65 40.4219Z" fill="#D5DDE4"/>
<path d="M29 40.4219H42C42.5523 40.4219 43 40.8696 43 41.4219C43 41.9742 42.5523 42.4219 42 42.4219H29C28.4477 42.4219 28 41.9742 28 41.4219C28 40.8696 28.4477 40.4219 29 40.4219Z" fill="#D5DDE4"/>
<path d="M65 52.4219H78C78.5523 52.4219 79 52.8696 79 53.4219C79 53.9742 78.5523 54.4219 78 54.4219H65C64.4477 54.4219 64 53.9742 64 53.4219C64 52.8696 64.4477 52.4219 65 52.4219Z" fill="#D5DDE4"/>
<path d="M29 52.4219H42C42.5523 52.4219 43 52.8696 43 53.4219C43 53.9742 42.5523 54.4219 42 54.4219H29C28.4477 54.4219 28 53.9742 28 53.4219C28 52.8696 28.4477 52.4219 29 52.4219Z" fill="#D5DDE4"/>
<path d="M65 43.4219H78C78.5523 43.4219 79 43.8696 79 44.4219C79 44.9742 78.5523 45.4219 78 45.4219H65C64.4477 45.4219 64 44.9742 64 44.4219C64 43.8696 64.4477 43.4219 65 43.4219Z" fill="#D5DDE4"/>
<path d="M29 43.4219H42C42.5523 43.4219 43 43.8696 43 44.4219C43 44.9742 42.5523 45.4219 42 45.4219H29C28.4477 45.4219 28 44.9742 28 44.4219C28 43.8696 28.4477 43.4219 29 43.4219Z" fill="#D5DDE4"/>
<path d="M65 55.4219H78C78.5523 55.4219 79 55.8696 79 56.4219C79 56.9742 78.5523 57.4219 78 57.4219H65C64.4477 57.4219 64 56.9742 64 56.4219C64 55.8696 64.4477 55.4219 65 55.4219Z" fill="#D5DDE4"/>
<path d="M29 55.4219H42C42.5523 55.4219 43 55.8696 43 56.4219C43 56.9742 42.5523 57.4219 42 57.4219H29C28.4477 57.4219 28 56.9742 28 56.4219C28 55.8696 28.4477 55.4219 29 55.4219Z" fill="#D5DDE4"/>
<path d="M24 17.4219H26.5185C27.6661 17.4219 28.4982 17.5842 29.0148 17.9089C29.5351 18.2299 29.7952 18.7424 29.7952 19.4465C29.7952 19.9244 29.6808 20.3165 29.452 20.623C29.2269 20.9294 28.9262 21.1136 28.5498 21.1756V21.2304C29.0627 21.3434 29.4317 21.555 29.6568 21.8651C29.8856 22.1752 30 22.5874 30 23.1018C30 23.8314 29.7325 24.4004 29.1974 24.809C28.6661 25.2176 27.9428 25.4219 27.0277 25.4219H24V17.4219ZM25.7159 20.5901H26.7122C27.1771 20.5901 27.5129 20.519 27.7196 20.3767C27.9299 20.2345 28.0351 19.9992 28.0351 19.6708C28.0351 19.3644 27.9207 19.1455 27.6919 19.0142C27.4668 18.8792 27.1089 18.8118 26.6181 18.8118H25.7159V20.5901ZM25.7159 21.9362V24.0211H26.8339C27.3063 24.0211 27.655 23.9317 27.8801 23.7529C28.1052 23.5742 28.2177 23.3006 28.2177 22.9321C28.2177 22.2682 27.738 21.9362 26.7786 21.9362H25.7159Z" fill="#0E2435"/>
</svg>
