<svg width="68" height="79" viewBox="0 0 68 79" fill="none" xmlns="http://www.w3.org/2000/svg">
<path d="M3 14.4219C3 13.8696 3.44772 13.4219 4 13.4219H55C55.5523 13.4219 56 13.8696 56 14.4219V74.4219C56 74.9742 55.5523 75.4219 55 75.4219H4C3.44771 75.4219 3 74.9742 3 74.4219V14.4219Z" fill="#D5DDE4"/>
<path fill-rule="evenodd" clip-rule="evenodd" d="M4 10.4219H55C57.2091 10.4219 59 12.2127 59 14.4219V74.4219C59 76.631 57.2091 78.4219 55 78.4219H4C1.79086 78.4219 0 76.631 0 74.4219V14.4219C0 12.2127 1.79086 10.4219 4 10.4219ZM4 13.4219C3.44772 13.4219 3 13.8696 3 14.4219V74.4219C3 74.9742 3.44771 75.4219 4 75.4219H55C55.5523 75.4219 56 74.9742 56 74.4219V14.4219C56 13.8696 55.5523 13.4219 55 13.4219H4Z" fill="#0E2435"/>
<path d="M13 65.9219H64C64.5523 65.9219 65 65.4742 65 64.9219V34.6719V19.4138C65 19.1769 64.9159 18.9477 64.7627 18.767L52.0495 3.77511C51.8595 3.55105 51.5806 3.42188 51.2869 3.42188H38.5H13C12.4477 3.42188 12 3.86959 12 4.42187V64.9219C12 65.4742 12.4477 65.9219 13 65.9219Z" fill="white"/>
<path fill-rule="evenodd" clip-rule="evenodd" d="M64 68.9219H13C10.7909 68.9219 9 67.131 9 64.9219V4.42187C9 2.21273 10.7909 0.421875 13 0.421875H51.2869C52.462 0.421875 53.5776 0.938591 54.3376 1.83483L67.0508 16.8267C67.6636 17.5494 68 18.4662 68 19.4138V64.9219C68 67.131 66.2091 68.9219 64 68.9219ZM64 65.9219H13C12.4477 65.9219 12 65.4742 12 64.9219V4.42187C12 3.86959 12.4477 3.42188 13 3.42188H51.2869C51.5806 3.42188 51.8595 3.55105 52.0495 3.77511L64.7627 18.767C64.9159 18.9477 65 19.1769 65 19.4138V64.9219C65 65.4742 64.5523 65.9219 64 65.9219Z" fill="#0E2435"/>
<path fill-rule="evenodd" clip-rule="evenodd" d="M17 30.4219C17 29.8696 17.2025 29.4219 17.4524 29.4219L35.5476 29.4219C35.7975 29.4219 36 29.8696 36 30.4219C36 30.9742 35.7975 31.4219 35.5476 31.4219L17.4524 31.4219C17.2025 31.4219 17 30.9742 17 30.4219Z" fill="#D5DDE4"/>
<path fill-rule="evenodd" clip-rule="evenodd" d="M17 24.4219C17 23.8696 17.2025 23.4219 17.4524 23.4219L35.5476 23.4219C35.7975 23.4219 36 23.8696 36 24.4219C36 24.9742 35.7975 25.4219 35.5476 25.4219L17.4524 25.4219C17.2025 25.4219 17 24.9742 17 24.4219Z" fill="#D5DDE4"/>
<path fill-rule="evenodd" clip-rule="evenodd" d="M17 18.4219C17 17.8696 17.2025 17.4219 17.4524 17.4219L35.5476 17.4219C35.7975 17.4219 36 17.8696 36 18.4219C36 18.9742 35.7975 19.4219 35.5476 19.4219L17.4524 19.4219C17.2025 19.4219 17 18.9742 17 18.4219Z" fill="#D5DDE4"/>
<path fill-rule="evenodd" clip-rule="evenodd" d="M17 12.4219C17 11.8696 17.2025 11.4219 17.4524 11.4219L35.5476 11.4219C35.7975 11.4219 36 11.8696 36 12.4219C36 12.9742 35.7975 13.4219 35.5476 13.4219L17.4524 13.4219C17.2025 13.4219 17 12.9742 17 12.4219Z" fill="#0E2435"/>
<path fill-rule="evenodd" clip-rule="evenodd" d="M17 9.42188C17 8.86959 17.2878 8.42187 17.6429 8.42187L43.3571 8.42187C43.7122 8.42187 44 8.86959 44 9.42187C44 9.97416 43.7122 10.4219 43.3571 10.4219L17.6429 10.4219C17.2878 10.4219 17 9.97416 17 9.42188Z" fill="#0E2435"/>
<path fill-rule="evenodd" clip-rule="evenodd" d="M41 30.4219C41 29.8696 41.2025 29.4219 41.4524 29.4219L59.5476 29.4219C59.7975 29.4219 60 29.8696 60 30.4219C60 30.9742 59.7975 31.4219 59.5476 31.4219L41.4524 31.4219C41.2025 31.4219 41 30.9742 41 30.4219Z" fill="#D5DDE4"/>
<path fill-rule="evenodd" clip-rule="evenodd" d="M41 24.4219C41 23.8696 41.2025 23.4219 41.4524 23.4219L59.5476 23.4219C59.7975 23.4219 60 23.8696 60 24.4219C60 24.9742 59.7975 25.4219 59.5476 25.4219L41.4524 25.4219C41.2025 25.4219 41 24.9742 41 24.4219Z" fill="#D5DDE4"/>
<path fill-rule="evenodd" clip-rule="evenodd" d="M41 18.4219C41 17.8696 41.2025 17.4219 41.4524 17.4219L59.5476 17.4219C59.7975 17.4219 60 17.8696 60 18.4219C60 18.9742 59.7975 19.4219 59.5476 19.4219L41.4524 19.4219C41.2025 19.4219 41 18.9742 41 18.4219Z" fill="#D5DDE4"/>
<path fill-rule="evenodd" clip-rule="evenodd" d="M17 33.4219C17 32.8696 17.2025 32.4219 17.4524 32.4219L35.5476 32.4219C35.7975 32.4219 36 32.8696 36 33.4219C36 33.9742 35.7975 34.4219 35.5476 34.4219L17.4524 34.4219C17.2025 34.4219 17 33.9742 17 33.4219Z" fill="#D5DDE4"/>
<path fill-rule="evenodd" clip-rule="evenodd" d="M17 27.4219C17 26.8696 17.2025 26.4219 17.4524 26.4219L35.5476 26.4219C35.7975 26.4219 36 26.8696 36 27.4219C36 27.9742 35.7975 28.4219 35.5476 28.4219L17.4524 28.4219C17.2025 28.4219 17 27.9742 17 27.4219Z" fill="#D5DDE4"/>
<path fill-rule="evenodd" clip-rule="evenodd" d="M17 21.4219C17 20.8696 17.2025 20.4219 17.4524 20.4219L35.5476 20.4219C35.7975 20.4219 36 20.8696 36 21.4219C36 21.9742 35.7975 22.4219 35.5476 22.4219L17.4524 22.4219C17.2025 22.4219 17 21.9742 17 21.4219Z" fill="#D5DDE4"/>
<path fill-rule="evenodd" clip-rule="evenodd" d="M41 33.4219C41 32.8696 41.2025 32.4219 41.4524 32.4219L59.5476 32.4219C59.7975 32.4219 60 32.8696 60 33.4219C60 33.9742 59.7975 34.4219 59.5476 34.4219L41.4524 34.4219C41.2025 34.4219 41 33.9742 41 33.4219Z" fill="#D5DDE4"/>
<path fill-rule="evenodd" clip-rule="evenodd" d="M41 27.4219C41 26.8696 41.2025 26.4219 41.4524 26.4219L59.5476 26.4219C59.7975 26.4219 60 26.8696 60 27.4219C60 27.9742 59.7975 28.4219 59.5476 28.4219L41.4524 28.4219C41.2025 28.4219 41 27.9742 41 27.4219Z" fill="#D5DDE4"/>
<path fill-rule="evenodd" clip-rule="evenodd" d="M41 21.4219C41 20.8696 41.2025 20.4219 41.4524 20.4219L59.5476 20.4219C59.7975 20.4219 60 20.8696 60 21.4219C60 21.9742 59.7975 22.4219 59.5476 22.4219L41.4524 22.4219C41.2025 22.4219 41 21.9742 41 21.4219Z" fill="#D5DDE4"/>
<path fill-rule="evenodd" clip-rule="evenodd" d="M42 47.9219H43.59C44.48 47.9219 44.92 49.0019 44.29 49.6319L39.7 54.2219C39.31 54.6119 38.68 54.6119 38.29 54.2219L33.7 49.6319C33.07 49.0019 33.52 47.9219 34.41 47.9219H36V42.9219C36 42.3719 36.45 41.9219 37 41.9219H41C41.55 41.9219 42 42.3719 42 42.9219V47.9219ZM33 58.9219C32.45 58.9219 32 58.4719 32 57.9219C32 57.3719 32.45 56.9219 33 56.9219H45C45.55 56.9219 46 57.3719 46 57.9219C46 58.4719 45.55 58.9219 45 58.9219H33Z" fill="#2F80ED"/>
</svg>
