<svg width="96" height="86" viewBox="0 0 96 86" fill="none" xmlns="http://www.w3.org/2000/svg">
<g filter="url(#filter0_d)">
<path d="M16 4.42188C16 3.86959 16.4477 3.42188 17 3.42188H92C92.5523 3.42188 93 3.86959 93 4.42188V68.8739C93 69.4262 92.5523 69.8739 92 69.8739H17C16.4477 69.8739 16 69.4262 16 68.8739V4.42188Z" fill="white"/>
</g>
<path fill-rule="evenodd" clip-rule="evenodd" d="M17 0.421875H92C94.2091 0.421875 96 2.21273 96 4.42188V68.8739C96 71.0831 94.2091 72.8739 92 72.8739H17C14.7909 72.8739 13 71.0831 13 68.8739V4.42188C13 2.21274 14.7909 0.421875 17 0.421875ZM17 3.42188C16.4477 3.42188 16 3.86959 16 4.42188V68.8739C16 69.4262 16.4477 69.8739 17 69.8739H92C92.5523 69.8739 93 69.4262 93 68.8739V4.42188C93 3.86959 92.5523 3.42188 92 3.42188H17Z" fill="#0E2435"/>
<path d="M42.3701 23.463H67.6852V48.7781H42.3701V23.463Z" fill="#D5DDE4"/>
<path fill-rule="evenodd" clip-rule="evenodd" d="M54.5 11.8602C53.6261 11.8602 52.9178 12.5686 52.9178 13.4424V22.1838H46.1048C46.1016 22.1837 46.0984 22.1837 46.0953 22.1837H43.4246V13.4424C43.4246 12.5686 42.7162 11.8602 41.8424 11.8602C40.9686 11.8602 40.2602 12.5686 40.2602 13.4424V22.1837L32.3156 22.1837C31.4604 22.1837 30.7671 22.877 30.7671 23.7323C30.7671 24.5875 31.4604 25.2808 32.3156 25.2808H40.2602V25.7633C40.2602 25.8349 40.265 25.9054 40.2742 25.9745C40.2649 26.0862 40.2602 26.1991 40.2602 26.3132V34.572H32.3156C31.4604 34.572 30.7671 35.2653 30.7671 36.1205C30.7671 36.9757 31.4604 37.669 32.3156 37.669L40.2602 37.669V45.9279C40.2602 46.0419 40.2649 46.1548 40.2742 46.2665C40.265 46.3356 40.2602 46.4061 40.2602 46.4777V46.9602H32.3156C31.4604 46.9602 30.7671 47.6535 30.7671 48.5087C30.7671 49.364 31.4604 50.0573 32.3156 50.0573H40.2602V58.7986C40.2602 59.6724 40.9686 60.3808 41.8424 60.3808C42.7162 60.3808 43.4246 59.6724 43.4246 58.7986V50.0573H44.4712C44.4739 50.0573 44.4766 50.0573 44.4794 50.0573H52.9178V58.7986C52.9178 59.6724 53.6261 60.3808 54.5 60.3808C55.3738 60.3808 56.0821 59.6724 56.0821 58.7986V50.0573H64.5205C64.5232 50.0573 64.5259 50.0573 64.5287 50.0573H65.5753V58.7986C65.5753 59.6724 66.2837 60.3808 67.1575 60.3808C68.0313 60.3808 68.7397 59.6724 68.7397 58.7986V50.0573H77.7391C78.5944 50.0573 79.2877 49.364 79.2877 48.5087C79.2877 47.6535 78.5944 46.9602 77.7391 46.9602H68.7397V46.4777C68.7397 46.406 68.7349 46.3355 68.7257 46.2663C68.7349 46.1547 68.7397 46.0418 68.7397 45.9279V37.669L77.7391 37.669C78.5944 37.669 79.2877 36.9757 79.2877 36.1205C79.2877 35.2653 78.5944 34.572 77.7391 34.572H68.7397V26.3132C68.7397 26.1992 68.7349 26.0863 68.7257 25.9747C68.7349 25.9055 68.7397 25.835 68.7397 25.7633V25.2808H77.7391C78.5944 25.2808 79.2877 24.5875 79.2877 23.7323C79.2877 22.877 78.5944 22.1837 77.7391 22.1837L68.7397 22.1837V13.4424C68.7397 12.5686 68.0313 11.8602 67.1575 11.8602C66.2837 11.8602 65.5753 12.5686 65.5753 13.4424V22.1837H63.9595C63.9563 22.1837 63.9531 22.1837 63.95 22.1838H56.0821V13.4424C56.0821 12.5686 55.3738 11.8602 54.5 11.8602ZM64.5246 46.9602C65.1052 46.958 65.5753 46.4967 65.5753 45.9279V26.3132C65.5753 25.743 65.103 25.2808 64.5205 25.2808H44.4794C43.8968 25.2808 43.4246 25.743 43.4246 26.3132V36.1096C43.4246 36.1133 43.4246 36.1169 43.4246 36.1205C43.4246 36.1241 43.4246 36.1277 43.4246 36.1313V45.9279C43.4246 46.4967 43.8946 46.958 44.4753 46.9602H46.0953C46.0969 46.9602 46.0986 46.9602 46.1002 46.9602H54.4964C54.4976 46.9602 54.4988 46.9602 54.4999 46.9602C54.5011 46.9602 54.5023 46.9602 54.5035 46.9602H63.9546C63.9562 46.9602 63.9578 46.9602 63.9595 46.9602H64.5246Z" fill="#0E2435"/>
<path d="M52.4883 37.7017V36.9044C52.4883 36.2987 52.6119 35.7888 52.8591 35.3747C53.1063 34.9545 53.5451 34.5465 54.1755 34.151C54.6761 33.8358 55.0346 33.5515 55.2509 33.2981C55.4734 33.0447 55.5847 32.7542 55.5847 32.4267C55.5847 32.1671 55.4672 31.9631 55.2324 31.8148C54.9975 31.6603 54.6916 31.583 54.3146 31.583C53.3813 31.583 52.2905 31.9137 51.042 32.575L49.7534 30.0534C51.2923 29.1757 52.8993 28.7369 54.5742 28.7369C55.9524 28.7369 57.034 29.0398 57.8189 29.6455C58.6038 30.2511 58.9963 31.0762 58.9963 32.1207C58.9963 32.8686 58.8201 33.5175 58.4678 34.0676C58.1217 34.6114 57.5655 35.1275 56.7991 35.6158C56.1502 36.036 55.7423 36.3451 55.5754 36.5428C55.4147 36.7344 55.3344 36.9631 55.3344 37.2289V37.7017H52.4883ZM52.0896 40.9464C52.0896 40.3778 52.2534 39.939 52.581 39.63C52.9147 39.3209 53.403 39.1664 54.0457 39.1664C54.6638 39.1664 55.1366 39.324 55.4641 39.6392C55.7979 39.9483 55.9648 40.384 55.9648 40.9464C55.9648 41.5088 55.7917 41.9445 55.4456 42.2536C55.1057 42.5626 54.6391 42.7171 54.0457 42.7171C53.4339 42.7171 52.9549 42.5657 52.6088 42.2628C52.2627 41.9538 52.0896 41.515 52.0896 40.9464Z" fill="#B30015"/>
<defs>
<filter id="filter0_d" x="0" y="1.42188" width="95" height="84.4521" filterUnits="userSpaceOnUse" color-interpolation-filters="sRGB">
<feFlood flood-opacity="0" result="BackgroundImageFix"/>
<feColorMatrix in="SourceAlpha" type="matrix" values="0 0 0 0 0 0 0 0 0 0 0 0 0 0 0 0 0 0 127 0"/>
<feOffset dx="-7" dy="7"/>
<feGaussianBlur stdDeviation="4.5"/>
<feColorMatrix type="matrix" values="0 0 0 0 0.054902 0 0 0 0 0.141176 0 0 0 0 0.207843 0 0 0 0.19 0"/>
<feBlend mode="normal" in2="BackgroundImageFix" result="effect1_dropShadow"/>
<feBlend mode="normal" in="SourceGraphic" in2="effect1_dropShadow" result="shape"/>
</filter>
</defs>
</svg>
