<svg width="72" height="91" viewBox="0 0 72 91" fill="none" xmlns="http://www.w3.org/2000/svg">
<path d="M7 23.4219C7 22.8696 7.44772 22.4219 8 22.4219H59C59.5523 22.4219 60 22.8696 60 23.4219V83.4219C60 83.9742 59.5523 84.4219 59 84.4219H8C7.44771 84.4219 7 83.9742 7 83.4219V23.4219Z" fill="#D5DDE4"/>
<path fill-rule="evenodd" clip-rule="evenodd" d="M8 19.4219H59C61.2091 19.4219 63 21.2127 63 23.4219V83.4219C63 85.631 61.2091 87.4219 59 87.4219H8C5.79086 87.4219 4 85.631 4 83.4219V23.4219C4 21.2127 5.79086 19.4219 8 19.4219ZM8 22.4219C7.44772 22.4219 7 22.8696 7 23.4219V83.4219C7 83.9742 7.44771 84.4219 8 84.4219H59C59.5523 84.4219 60 83.9742 60 83.4219V23.4219C60 22.8696 59.5523 22.4219 59 22.4219H8Z" fill="#0E2435"/>
<g filter="url(#filter0_d)">
<path d="M16 13.4219C16 12.8696 16.4477 12.4219 17 12.4219H68C68.5523 12.4219 69 12.8696 69 13.4219V73.9219C69 74.4742 68.5523 74.9219 68 74.9219H17C16.4477 74.9219 16 74.4742 16 73.9219V13.4219Z" fill="white"/>
</g>
<path fill-rule="evenodd" clip-rule="evenodd" d="M17 9.42188H68C70.2091 9.42188 72 11.2127 72 13.4219V73.9219C72 76.131 70.2091 77.9219 68 77.9219H17C14.7909 77.9219 13 76.131 13 73.9219V13.4219C13 11.2127 14.7909 9.42188 17 9.42188ZM17 12.4219C16.4477 12.4219 16 12.8696 16 13.4219V73.9219C16 74.4742 16.4477 74.9219 17 74.9219H68C68.5523 74.9219 69 74.4742 69 73.9219V13.4219C69 12.8696 68.5523 12.4219 68 12.4219H17Z" fill="#0E2435"/>
<path d="M30 49.9219C30 51.8549 28.433 53.4219 26.5 53.4219C24.567 53.4219 23 51.8549 23 49.9219C23 47.9889 24.567 46.4219 26.5 46.4219C28.433 46.4219 30 47.9889 30 49.9219Z" fill="#FB9B0B"/>
<path d="M30 61.9219C30 63.8549 28.433 65.4219 26.5 65.4219C24.567 65.4219 23 63.8549 23 61.9219C23 59.9889 24.567 58.4219 26.5 58.4219C28.433 58.4219 30 59.9889 30 61.9219Z" fill="#B30015"/>
<path d="M30 37.9219C30 39.8549 28.433 41.4219 26.5 41.4219C24.567 41.4219 23 39.8549 23 37.9219C23 35.9889 24.567 34.4219 26.5 34.4219C28.433 34.4219 30 35.9889 30 37.9219Z" fill="#168342"/>
<path d="M30 25.9219C30 27.8549 28.433 29.4219 26.5 29.4219C24.567 29.4219 23 27.8549 23 25.9219C23 23.9889 24.567 22.4219 26.5 22.4219C28.433 22.4219 30 23.9889 30 25.9219Z" fill="#F2C94C"/>
<path d="M42.5 0.421875C29.5213 0.421875 19 8.03304 19 17.4219H66C66 8.03304 55.4787 0.421875 42.5 0.421875Z" fill="white"/>
<path fill-rule="evenodd" clip-rule="evenodd" d="M27.0552 7.02151C23.8482 9.34151 21.8044 12.275 21.1931 15.4219H63.8069C63.1956 12.275 61.1518 9.34151 57.9448 7.02151C54.069 4.21779 48.6149 2.42188 42.5 2.42188C36.3851 2.42188 30.931 4.21779 27.0552 7.02151ZM65.8391 15.4219C64.4708 6.97554 54.5434 0.421875 42.5 0.421875C30.4566 0.421875 20.5292 6.97554 19.1609 15.4219C19.0546 16.0779 19 16.7452 19 17.4219H66C66 16.7452 65.9454 16.0779 65.8391 15.4219Z" fill="white"/>
<path d="M42.4999 2.42188C32.2343 2.42188 23.8214 7.7102 23.0566 14.4233C22.994 14.9721 23.4476 15.4219 23.9999 15.4219H60.9999C61.5522 15.4219 62.0057 14.9721 61.9432 14.4233C61.1783 7.71019 52.7655 2.42188 42.4999 2.42188Z" fill="white"/>
<path fill-rule="evenodd" clip-rule="evenodd" d="M26.8005 12.4219H58.1992C57.4368 11.0174 56.1186 9.64356 54.2023 8.45411C51.251 6.6223 47.143 5.42188 42.4999 5.42188C37.8568 5.42188 33.7488 6.6223 30.7975 8.45411C28.8812 9.64356 27.563 11.0174 26.8005 12.4219ZM23.0566 14.4233C23.8214 7.7102 32.2343 2.42188 42.4999 2.42188C52.7655 2.42188 61.1783 7.71019 61.9432 14.4233C62.0057 14.9721 61.5522 15.4219 60.9999 15.4219H23.9999C23.4476 15.4219 22.994 14.9721 23.0566 14.4233Z" fill="#0E2435"/>
<path fill-rule="evenodd" clip-rule="evenodd" d="M33 25.4219C33 24.8696 33.3091 24.4219 33.6905 24.4219L61.3095 24.4219C61.6909 24.4219 62 24.8696 62 25.4219C62 25.9742 61.6909 26.4219 61.3095 26.4219L33.6905 26.4219C33.3091 26.4219 33 25.9742 33 25.4219Z" fill="#D5DDE4"/>
<path fill-rule="evenodd" clip-rule="evenodd" d="M33 36.4219C33 35.8696 33.3091 35.4219 33.6905 35.4219L61.3095 35.4219C61.6909 35.4219 62 35.8696 62 36.4219C62 36.9742 61.6909 37.4219 61.3095 37.4219L33.6905 37.4219C33.3091 37.4219 33 36.9742 33 36.4219Z" fill="#D5DDE4"/>
<path fill-rule="evenodd" clip-rule="evenodd" d="M33 48.4219C33 47.8696 33.3091 47.4219 33.6905 47.4219L61.3095 47.4219C61.6909 47.4219 62 47.8696 62 48.4219C62 48.9742 61.6909 49.4219 61.3095 49.4219L33.6905 49.4219C33.3091 49.4219 33 48.9742 33 48.4219Z" fill="#D5DDE4"/>
<path fill-rule="evenodd" clip-rule="evenodd" d="M33 60.4219C33 59.8696 33.3091 59.4219 33.6905 59.4219L61.3095 59.4219C61.6909 59.4219 62 59.8696 62 60.4219C62 60.9742 61.6909 61.4219 61.3095 61.4219L33.6905 61.4219C33.3091 61.4219 33 60.9742 33 60.4219Z" fill="#D5DDE4"/>
<path fill-rule="evenodd" clip-rule="evenodd" d="M33 28.4219C33 27.8696 33.3091 27.4219 33.6905 27.4219L61.3095 27.4219C61.6909 27.4219 62 27.8696 62 28.4219C62 28.9742 61.6909 29.4219 61.3095 29.4219L33.6905 29.4219C33.3091 29.4219 33 28.9742 33 28.4219Z" fill="#D5DDE4"/>
<path fill-rule="evenodd" clip-rule="evenodd" d="M33 39.4219C33 38.8696 33.3091 38.4219 33.6905 38.4219L61.3095 38.4219C61.6909 38.4219 62 38.8696 62 39.4219C62 39.9742 61.6909 40.4219 61.3095 40.4219L33.6905 40.4219C33.3091 40.4219 33 39.9742 33 39.4219Z" fill="#D5DDE4"/>
<path fill-rule="evenodd" clip-rule="evenodd" d="M33 51.4219C33 50.8696 33.3091 50.4219 33.6905 50.4219L61.3095 50.4219C61.6909 50.4219 62 50.8696 62 51.4219C62 51.9742 61.6909 52.4219 61.3095 52.4219L33.6905 52.4219C33.3091 52.4219 33 51.9742 33 51.4219Z" fill="#D5DDE4"/>
<path fill-rule="evenodd" clip-rule="evenodd" d="M33 63.4219C33 62.8696 33.3091 62.4219 33.6905 62.4219L61.3095 62.4219C61.6909 62.4219 62 62.8696 62 63.4219C62 63.9742 61.6909 64.4219 61.3095 64.4219L33.6905 64.4219C33.3091 64.4219 33 63.9742 33 63.4219Z" fill="#D5DDE4"/>
<defs>
<filter id="filter0_d" x="0" y="10.4219" width="71" height="80.5" filterUnits="userSpaceOnUse" color-interpolation-filters="sRGB">
<feFlood flood-opacity="0" result="BackgroundImageFix"/>
<feColorMatrix in="SourceAlpha" type="matrix" values="0 0 0 0 0 0 0 0 0 0 0 0 0 0 0 0 0 0 127 0"/>
<feOffset dx="-7" dy="7"/>
<feGaussianBlur stdDeviation="4.5"/>
<feColorMatrix type="matrix" values="0 0 0 0 0.054902 0 0 0 0 0.141176 0 0 0 0 0.207843 0 0 0 0.19 0"/>
<feBlend mode="normal" in2="BackgroundImageFix" result="effect1_dropShadow"/>
<feBlend mode="normal" in="SourceGraphic" in2="effect1_dropShadow" result="shape"/>
</filter>
</defs>
</svg>
