<svg width="97" height="80" viewBox="0 0 97 80" fill="none" xmlns="http://www.w3.org/2000/svg">
<path fill-rule="evenodd" clip-rule="evenodd" d="M56.9968 73.6731C54.6092 75.4024 51.6738 76.4219 48.5003 76.4219C45.3269 76.4219 42.3915 75.4024 40.0039 73.6731C40.1355 69.0937 43.8891 65.4219 48.5003 65.4219C53.1115 65.4219 56.8651 69.0937 56.9968 73.6731Z" fill="#D5DDE4"/>
<path fill-rule="evenodd" clip-rule="evenodd" d="M60.041 75.1724L58.7564 76.1028C55.8741 78.1904 52.3266 79.4219 48.5002 79.4219C44.6739 79.4219 41.1264 78.1904 38.244 76.1028L36.9595 75.1724L37.005 73.5869C37.1832 67.3896 42.261 62.4219 48.5002 62.4219C54.7394 62.4219 59.8173 67.3896 59.9954 73.5869L60.041 75.1724ZM40.0038 73.6731C42.3914 75.4024 45.3268 76.4219 48.5002 76.4219C51.6737 76.4219 54.6091 75.4024 56.9967 73.6731C56.865 69.0937 53.1114 65.4219 48.5002 65.4219C43.889 65.4219 40.1354 69.0937 40.0038 73.6731Z" fill="#0E2435"/>
<path d="M48.5 66.4219C50.9853 66.4219 53 64.4072 53 61.9219C53 59.4366 50.9853 57.4219 48.5 57.4219C46.0147 57.4219 44 59.4366 44 61.9219C44 64.4072 46.0147 66.4219 48.5 66.4219Z" fill="white"/>
<path fill-rule="evenodd" clip-rule="evenodd" d="M41 61.9219C41 66.064 44.3579 69.4219 48.5 69.4219C52.6421 69.4219 56 66.064 56 61.9219C56 57.7797 52.6421 54.4219 48.5 54.4219C44.3579 54.4219 41 57.7797 41 61.9219ZM53 61.9219C53 64.4072 50.9853 66.4219 48.5 66.4219C46.0147 66.4219 44 64.4072 44 61.9219C44 59.4366 46.0147 57.4219 48.5 57.4219C50.9853 57.4219 53 59.4366 53 61.9219Z" fill="#0E2435"/>
<path fill-rule="evenodd" clip-rule="evenodd" d="M22 20.4219H74.5V23.4219H22V20.4219Z" fill="#0E2435"/>
<path d="M40 19.9219C40 15.2275 43.8056 11.4219 48.5 11.4219C53.1944 11.4219 57 15.2275 57 19.9219V30.0565C57 30.2583 56.8364 30.4219 56.6346 30.4219H40.3654C40.1636 30.4219 40 30.2583 40 30.0565V19.9219Z" fill="#D9C0F1"/>
<path fill-rule="evenodd" clip-rule="evenodd" d="M60 19.9219V30.0565C60 31.9151 58.4933 33.4219 56.6346 33.4219H40.3654C38.5067 33.4219 37 31.9151 37 30.0565V19.9219C37 13.5706 42.1487 8.42188 48.5 8.42188C54.8513 8.42188 60 13.5706 60 19.9219ZM48.5 11.4219C43.8056 11.4219 40 15.2275 40 19.9219V30.0565C40 30.2583 40.1636 30.4219 40.3654 30.4219H56.6346C56.8364 30.4219 57 30.2583 57 30.0565V19.9219C57 15.2275 53.1944 11.4219 48.5 11.4219Z" fill="#0E2435"/>
<path d="M48.5 12.4219C50.9853 12.4219 53 10.4072 53 7.92188C53 5.43659 50.9853 3.42188 48.5 3.42188C46.0147 3.42188 44 5.43659 44 7.92188C44 10.4072 46.0147 12.4219 48.5 12.4219Z" fill="white"/>
<path fill-rule="evenodd" clip-rule="evenodd" d="M41 7.92188C41 12.064 44.3579 15.4219 48.5 15.4219C52.6421 15.4219 56 12.064 56 7.92188C56 3.77974 52.6421 0.421875 48.5 0.421875C44.3579 0.421876 41 3.77974 41 7.92188ZM53 7.92188C53 10.4072 50.9853 12.4219 48.5 12.4219C46.0147 12.4219 44 10.4072 44 7.92188C44 5.43659 46.0147 3.42188 48.5 3.42188C50.9853 3.42188 53 5.43659 53 7.92188Z" fill="#0E2435"/>
<path d="M3 19.9219C3 15.2275 6.80558 11.4219 11.5 11.4219C16.1944 11.4219 20 15.2275 20 19.9219V30.0565C20 30.2583 19.8364 30.4219 19.6346 30.4219H3.36539C3.16359 30.4219 3 30.2583 3 30.0565V19.9219Z" fill="#CAF3DB"/>
<path fill-rule="evenodd" clip-rule="evenodd" d="M23 19.9219V30.0565C23 31.9151 21.4933 33.4219 19.6346 33.4219H3.36539C1.50674 33.4219 0 31.9151 0 30.0565V19.9219C0 13.5706 5.14873 8.42188 11.5 8.42188C17.8513 8.42188 23 13.5706 23 19.9219ZM11.5 11.4219C6.80558 11.4219 3 15.2275 3 19.9219V30.0565C3 30.2583 3.16359 30.4219 3.36539 30.4219H19.6346C19.8364 30.4219 20 30.2583 20 30.0565V19.9219C20 15.2275 16.1944 11.4219 11.5 11.4219Z" fill="#0E2435"/>
<path d="M11.5 12.4219C13.9853 12.4219 16 10.4072 16 7.92188C16 5.43659 13.9853 3.42188 11.5 3.42188C9.01472 3.42188 7 5.43659 7 7.92188C7 10.4072 9.01472 12.4219 11.5 12.4219Z" fill="white"/>
<path fill-rule="evenodd" clip-rule="evenodd" d="M4 7.92188C4 12.064 7.35786 15.4219 11.5 15.4219C15.6421 15.4219 19 12.064 19 7.92188C19 3.77974 15.6421 0.421875 11.5 0.421875C7.35786 0.421876 4 3.77974 4 7.92188ZM16 7.92188C16 10.4072 13.9853 12.4219 11.5 12.4219C9.01472 12.4219 7 10.4072 7 7.92188C7 5.43659 9.01472 3.42188 11.5 3.42188C13.9853 3.42188 16 5.43659 16 7.92188Z" fill="#0E2435"/>
<path d="M77 19.9219C77 15.2275 80.8056 11.4219 85.5 11.4219C90.1944 11.4219 94 15.2275 94 19.9219V30.0565C94 30.2583 93.8364 30.4219 93.6346 30.4219H77.3654C77.1636 30.4219 77 30.2583 77 30.0565V19.9219Z" fill="#FFE1B5"/>
<path fill-rule="evenodd" clip-rule="evenodd" d="M97 19.9219V30.0565C97 31.9151 95.4933 33.4219 93.6346 33.4219H77.3654C75.5067 33.4219 74 31.9151 74 30.0565V19.9219C74 13.5706 79.1487 8.42188 85.5 8.42188C91.8513 8.42188 97 13.5706 97 19.9219ZM85.5 11.4219C80.8056 11.4219 77 15.2275 77 19.9219V30.0565C77 30.2583 77.1636 30.4219 77.3654 30.4219H93.6346C93.8364 30.4219 94 30.2583 94 30.0565V19.9219C94 15.2275 90.1944 11.4219 85.5 11.4219Z" fill="#0E2435"/>
<path d="M85.5 12.4219C87.9853 12.4219 90 10.4072 90 7.92188C90 5.43659 87.9853 3.42188 85.5 3.42188C83.0147 3.42188 81 5.43659 81 7.92188C81 10.4072 83.0147 12.4219 85.5 12.4219Z" fill="white"/>
<path fill-rule="evenodd" clip-rule="evenodd" d="M78 7.92188C78 12.064 81.3579 15.4219 85.5 15.4219C89.6421 15.4219 93 12.064 93 7.92188C93 3.77974 89.6421 0.421875 85.5 0.421875C81.3579 0.421876 78 3.77974 78 7.92188ZM90 7.92188C90 10.4072 87.9853 12.4219 85.5 12.4219C83.0147 12.4219 81 10.4072 81 7.92188C81 5.43659 83.0147 3.42188 85.5 3.42188C87.9853 3.42188 90 5.43659 90 7.92188Z" fill="#0E2435"/>
<path fill-rule="evenodd" clip-rule="evenodd" d="M10.5 65.9219V31.9219H13.5V64.4219H33V67.4219H12C11.1716 67.4219 10.5 66.7503 10.5 65.9219Z" fill="#0E2435"/>
<path fill-rule="evenodd" clip-rule="evenodd" d="M87.5 65.9219V31.9219H84.5V64.4219H65V67.4219H86C86.8284 67.4219 87.5 66.7503 87.5 65.9219Z" fill="#0E2435"/>
<path fill-rule="evenodd" clip-rule="evenodd" d="M47 49.9219V31.9219H50V49.9219H47Z" fill="#0E2435"/>
</svg>
