<svg width="96" height="81" viewBox="0 0 96 81" fill="none" xmlns="http://www.w3.org/2000/svg">
<path d="M3 46.4219C3 45.8696 3.44772 45.4219 4 45.4219H76C76.5523 45.4219 77 45.8696 77 46.4219V55.4219C77 55.9742 76.5523 56.4219 76 56.4219H4C3.44771 56.4219 3 55.9742 3 55.4219V46.4219Z" fill="white"/>
<path fill-rule="evenodd" clip-rule="evenodd" d="M4 42.4219H76C78.2091 42.4219 80 44.2127 80 46.4219V55.4219C80 57.631 78.2091 59.4219 76 59.4219H4C1.79086 59.4219 0 57.631 0 55.4219V46.4219C0 44.2127 1.79086 42.4219 4 42.4219ZM4 45.4219C3.44772 45.4219 3 45.8696 3 46.4219V55.4219C3 55.9742 3.44771 56.4219 4 56.4219H76C76.5523 56.4219 77 55.9742 77 55.4219V46.4219C77 45.8696 76.5523 45.4219 76 45.4219H4Z" fill="#0E2435"/>
<path d="M3 25.4219C3 24.8696 3.44772 24.4219 4 24.4219H76C76.5523 24.4219 77 24.8696 77 25.4219V34.4219C77 34.9742 76.5523 35.4219 76 35.4219H4C3.44771 35.4219 3 34.9742 3 34.4219V25.4219Z" fill="white"/>
<path fill-rule="evenodd" clip-rule="evenodd" d="M4 21.4219H76C78.2091 21.4219 80 23.2127 80 25.4219V34.4219C80 36.631 78.2091 38.4219 76 38.4219H4C1.79086 38.4219 0 36.631 0 34.4219V25.4219C0 23.2127 1.79086 21.4219 4 21.4219ZM4 24.4219C3.44772 24.4219 3 24.8696 3 25.4219V34.4219C3 34.9742 3.44771 35.4219 4 35.4219H76C76.5523 35.4219 77 34.9742 77 34.4219V25.4219C77 24.8696 76.5523 24.4219 76 24.4219H4Z" fill="#0E2435"/>
<path d="M69 29.9219C69 31.8549 67.433 33.4219 65.5 33.4219C63.567 33.4219 62 31.8549 62 29.9219C62 27.9889 63.567 26.4219 65.5 26.4219C67.433 26.4219 69 27.9889 69 29.9219Z" fill="#FB9B0B"/>
<path d="M70 50.9219C70 52.8549 68.433 54.4219 66.5 54.4219C64.567 54.4219 63 52.8549 63 50.9219C63 48.9889 64.567 47.4219 66.5 47.4219C68.433 47.4219 70 48.9889 70 50.9219Z" fill="#B30015"/>
<path d="M3 4.42187C3 3.86959 3.44772 3.42188 4 3.42188H76C76.5523 3.42188 77 3.86959 77 4.42188V13.4219C77 13.9742 76.5523 14.4219 76 14.4219H4C3.44771 14.4219 3 13.9742 3 13.4219V4.42187Z" fill="white"/>
<path fill-rule="evenodd" clip-rule="evenodd" d="M4 0.421875H76C78.2091 0.421875 80 2.21274 80 4.42188V13.4219C80 15.631 78.2091 17.4219 76 17.4219H4C1.79086 17.4219 0 15.631 0 13.4219V4.42187C0 2.21273 1.79086 0.421875 4 0.421875ZM4 3.42188C3.44772 3.42188 3 3.86959 3 4.42187V13.4219C3 13.9742 3.44771 14.4219 4 14.4219H76C76.5523 14.4219 77 13.9742 77 13.4219V4.42188C77 3.86959 76.5523 3.42188 76 3.42188H4Z" fill="#0E2435"/>
<path d="M54 29.9219C54 31.8549 52.433 33.4219 50.5 33.4219C48.567 33.4219 47 31.8549 47 29.9219C47 27.9889 48.567 26.4219 50.5 26.4219C52.433 26.4219 54 27.9889 54 29.9219Z" fill="#FB9B0B"/>
<path d="M54 50.9219C54 52.8549 52.433 54.4219 50.5 54.4219C48.567 54.4219 47 52.8549 47 50.9219C47 48.9889 48.567 47.4219 50.5 47.4219C52.433 47.4219 54 48.9889 54 50.9219Z" fill="#B30015"/>
<path d="M96 30.4219C96 40.363 87.9411 48.4219 78 48.4219C68.0589 48.4219 60 40.363 60 30.4219C60 20.4807 68.0589 12.4219 78 12.4219C87.9411 12.4219 96 20.4807 96 30.4219Z" fill="white"/>
<path fill-rule="evenodd" clip-rule="evenodd" d="M93.4284 30.4219C93.4284 38.9428 86.5208 45.8504 77.9999 45.8504C69.4789 45.8504 62.5713 38.9428 62.5713 30.4219C62.5713 21.9009 69.4789 14.9933 77.9999 14.9933C86.5208 14.9933 93.4284 21.9009 93.4284 30.4219ZM77.9999 43.279C85.1007 43.279 90.857 37.5227 90.857 30.4219C90.857 23.3211 85.1007 17.5647 77.9999 17.5647C70.8991 17.5647 65.1427 23.3211 65.1427 30.4219C65.1427 37.5227 70.8991 43.279 77.9999 43.279Z" fill="#B30015"/>
<path fill-rule="evenodd" clip-rule="evenodd" d="M78.0001 22.7076C78.7102 22.7076 79.2858 23.2832 79.2858 23.9933V31.7076C79.2858 32.4177 78.7102 32.9933 78.0001 32.9933C77.29 32.9933 76.7144 32.4177 76.7144 31.7076V23.9933C76.7144 23.2832 77.29 22.7076 78.0001 22.7076Z" fill="#B30015"/>
<path d="M76.7144 34.279H79.2858V36.8504H76.7144V34.279Z" fill="#B30015"/>
<path fill-rule="evenodd" clip-rule="evenodd" d="M6 12.4219C5.44772 12.4219 5 12.3473 5 12.2552L5 5.58854C5 5.49649 5.44771 5.42187 6 5.42187C6.55228 5.42187 7 5.49649 7 5.58854L7 12.2552C7 12.3473 6.55228 12.4219 6 12.4219Z" fill="#F2C94C"/>
<path fill-rule="evenodd" clip-rule="evenodd" d="M6 33.4219C5.44772 33.4219 5 33.3473 5 33.2552L5 26.5885C5 26.4965 5.44771 26.4219 6 26.4219C6.55228 26.4219 7 26.4965 7 26.5885L7 33.2552C7 33.3473 6.55228 33.4219 6 33.4219Z" fill="#FB9B0B"/>
<path fill-rule="evenodd" clip-rule="evenodd" d="M6 54.4219C5.44772 54.4219 5 54.3473 5 54.2552L5 47.5885C5 47.4965 5.44771 47.4219 6 47.4219C6.55228 47.4219 7 47.4965 7 47.5885L7 54.2552C7 54.3473 6.55228 54.4219 6 54.4219Z" fill="#B30015"/>
<path fill-rule="evenodd" clip-rule="evenodd" d="M10 12.4219C9.44772 12.4219 9 12.3473 9 12.2552L9 5.58854C9 5.49649 9.44771 5.42187 10 5.42187C10.5523 5.42187 11 5.49649 11 5.58854L11 12.2552C11 12.3473 10.5523 12.4219 10 12.4219Z" fill="#F2C94C"/>
<path fill-rule="evenodd" clip-rule="evenodd" d="M10 33.4219C9.44772 33.4219 9 33.3473 9 33.2552L9 26.5885C9 26.4965 9.44771 26.4219 10 26.4219C10.5523 26.4219 11 26.4965 11 26.5885L11 33.2552C11 33.3473 10.5523 33.4219 10 33.4219Z" fill="#FB9B0B"/>
<path fill-rule="evenodd" clip-rule="evenodd" d="M10 54.4219C9.44772 54.4219 9 54.3473 9 54.2552L9 47.5885C9 47.4965 9.44771 47.4219 10 47.4219C10.5523 47.4219 11 47.4965 11 47.5885L11 54.2552C11 54.3473 10.5523 54.4219 10 54.4219Z" fill="#B30015"/>
<path fill-rule="evenodd" clip-rule="evenodd" d="M14 12.4219C13.4477 12.4219 13 12.3473 13 12.2552L13 5.58854C13 5.49649 13.4477 5.42187 14 5.42187C14.5523 5.42187 15 5.49649 15 5.58854L15 12.2552C15 12.3473 14.5523 12.4219 14 12.4219Z" fill="#F2C94C"/>
<path fill-rule="evenodd" clip-rule="evenodd" d="M14 33.4219C13.4477 33.4219 13 33.3473 13 33.2552L13 26.5885C13 26.4965 13.4477 26.4219 14 26.4219C14.5523 26.4219 15 26.4965 15 26.5885L15 33.2552C15 33.3473 14.5523 33.4219 14 33.4219Z" fill="#FB9B0B"/>
<path fill-rule="evenodd" clip-rule="evenodd" d="M14 54.4219C13.4477 54.4219 13 54.3473 13 54.2552L13 47.5885C13 47.4965 13.4477 47.4219 14 47.4219C14.5523 47.4219 15 47.4965 15 47.5885L15 54.2552C15 54.3473 14.5523 54.4219 14 54.4219Z" fill="#B30015"/>
<path fill-rule="evenodd" clip-rule="evenodd" d="M18 12.4219C17.4477 12.4219 17 12.3473 17 12.2552L17 5.58854C17 5.49649 17.4477 5.42187 18 5.42187C18.5523 5.42187 19 5.49649 19 5.58854L19 12.2552C19 12.3473 18.5523 12.4219 18 12.4219Z" fill="#F2C94C"/>
<path fill-rule="evenodd" clip-rule="evenodd" d="M18 33.4219C17.4477 33.4219 17 33.3473 17 33.2552L17 26.5885C17 26.4965 17.4477 26.4219 18 26.4219C18.5523 26.4219 19 26.4965 19 26.5885L19 33.2552C19 33.3473 18.5523 33.4219 18 33.4219Z" fill="#FB9B0B"/>
<path fill-rule="evenodd" clip-rule="evenodd" d="M18 54.4219C17.4477 54.4219 17 54.3473 17 54.2552L17 47.5885C17 47.4965 17.4477 47.4219 18 47.4219C18.5523 47.4219 19 47.4965 19 47.5885L19 54.2552C19 54.3473 18.5523 54.4219 18 54.4219Z" fill="#B30015"/>
<path d="M69 8.92188C69 10.8549 67.433 12.4219 65.5 12.4219C63.567 12.4219 62 10.8549 62 8.92188C62 6.98888 63.567 5.42188 65.5 5.42188C67.433 5.42188 69 6.98888 69 8.92188Z" fill="#F2C94C"/>
<path d="M54 8.92188C54 10.8549 52.433 12.4219 50.5 12.4219C48.567 12.4219 47 10.8549 47 8.92188C47 6.98888 48.567 5.42188 50.5 5.42188C52.433 5.42188 54 6.98888 54 8.92188Z" fill="#F2C94C"/>
<path d="M56.6154 77.4219C56.8278 77.4219 57 77.2497 57 77.0373V77.0373C57 74.4883 54.9336 72.4219 52.3846 72.4219L26.6154 72.4219C24.0664 72.4219 22 74.4883 22 77.0373V77.0373C22 77.2497 22.1722 77.4219 22.3846 77.4219L56.6154 77.4219Z" fill="#D5DDE4"/>
<path fill-rule="evenodd" clip-rule="evenodd" d="M56.2094 74.4532C56.366 74.6846 56.5022 74.931 56.6154 75.1898C56.8628 75.7555 57 76.3803 57 77.0373C57 77.2497 56.8278 77.4219 56.6154 77.4219L22.3846 77.4219C22.1722 77.4219 22 77.2497 22 77.0373C22 76.3803 22.1372 75.7555 22.3846 75.1898C22.4978 74.931 22.634 74.6846 22.7906 74.4532C22.7977 74.4427 22.8049 74.4323 22.812 74.4219C23.6444 73.2138 25.0374 72.4219 26.6154 72.4219L52.3846 72.4219C53.9626 72.4219 55.3556 73.2138 56.188 74.4219C56.1951 74.4323 56.2023 74.4427 56.2094 74.4532ZM52.3846 69.4219L26.6154 69.4219C22.4095 69.4219 19 72.8314 19 77.0373C19 78.9065 20.5153 80.4219 22.3846 80.4219L56.6154 80.4219C58.4846 80.4219 60 78.9066 60 77.0373C60 72.8314 56.5905 69.4219 52.3846 69.4219Z" fill="#0E2435"/>
<path d="M37 69.4219H42V60.4219H37V69.4219Z" fill="white"/>
<path fill-rule="evenodd" clip-rule="evenodd" d="M34 72.4219H45V57.4219H34V72.4219ZM37 69.4219V60.4219H42V69.4219H37Z" fill="#0E2435"/>
</svg>
