<svg width="86" height="94" viewBox="0 0 86 94" fill="none" xmlns="http://www.w3.org/2000/svg">
<path d="M3 41.4219C3 40.8696 3.44772 40.4219 4 40.4219H22C22.5523 40.4219 23 40.8696 23 41.4219V69.4219C23 69.9742 22.5523 70.4219 22 70.4219H4C3.44772 70.4219 3 69.9742 3 69.4219V41.4219Z" fill="#FDCD85"/>
<path fill-rule="evenodd" clip-rule="evenodd" d="M4 37.4219H22C24.2091 37.4219 26 39.2127 26 41.4219V69.4219C26 71.631 24.2091 73.4219 22 73.4219H4C1.79086 73.4219 0 71.631 0 69.4219V41.4219C0 39.2127 1.79086 37.4219 4 37.4219ZM4 40.4219C3.44772 40.4219 3 40.8696 3 41.4219V69.4219C3 69.9742 3.44772 70.4219 4 70.4219H22C22.5523 70.4219 23 69.9742 23 69.4219V41.4219C23 40.8696 22.5523 40.4219 22 40.4219H4Z" fill="#0E2435"/>
<path d="M33 21.4219C33 20.8696 33.4477 20.4219 34 20.4219H52C52.5523 20.4219 53 20.8696 53 21.4219V69.4219C53 69.9742 52.5523 70.4219 52 70.4219H34C33.4477 70.4219 33 69.9742 33 69.4219V21.4219Z" fill="#D9808A"/>
<path fill-rule="evenodd" clip-rule="evenodd" d="M34 17.4219H52C54.2091 17.4219 56 19.2127 56 21.4219V69.4219C56 71.631 54.2091 73.4219 52 73.4219H34C31.7909 73.4219 30 71.631 30 69.4219V21.4219C30 19.2127 31.7909 17.4219 34 17.4219ZM34 20.4219C33.4477 20.4219 33 20.8696 33 21.4219V69.4219C33 69.9742 33.4477 70.4219 34 70.4219H52C52.5523 70.4219 53 69.9742 53 69.4219V21.4219C53 20.8696 52.5523 20.4219 52 20.4219H34Z" fill="#0E2435"/>
<path d="M33 81.4219C33 80.8696 33.4477 80.4219 34 80.4219H52C52.5523 80.4219 53 80.8696 53 81.4219V89.4219C53 89.9742 52.5523 90.4219 52 90.4219H34C33.4477 90.4219 33 89.9742 33 89.4219V81.4219Z" fill="#D9808A"/>
<path fill-rule="evenodd" clip-rule="evenodd" d="M34 77.4219H52C54.2091 77.4219 56 79.2127 56 81.4219V89.4219C56 91.631 54.2091 93.4219 52 93.4219H34C31.7909 93.4219 30 91.631 30 89.4219V81.4219C30 79.2127 31.7909 77.4219 34 77.4219ZM34 80.4219C33.4477 80.4219 33 80.8696 33 81.4219V89.4219C33 89.9742 33.4477 90.4219 34 90.4219H52C52.5523 90.4219 53 89.9742 53 89.4219V81.4219C53 80.8696 52.5523 80.4219 52 80.4219H34Z" fill="#0E2435"/>
<path d="M63 61.4219C63 60.8696 63.4477 60.4219 64 60.4219H82C82.5523 60.4219 83 60.8696 83 61.4219V69.4219C83 69.9742 82.5523 70.4219 82 70.4219H64C63.4477 70.4219 63 69.9742 63 69.4219V61.4219Z" fill="#97BFF6"/>
<path fill-rule="evenodd" clip-rule="evenodd" d="M64 57.4219H82C84.2091 57.4219 86 59.2127 86 61.4219V69.4219C86 71.631 84.2091 73.4219 82 73.4219H64C61.7909 73.4219 60 71.631 60 69.4219V61.4219C60 59.2127 61.7909 57.4219 64 57.4219ZM64 60.4219C63.4477 60.4219 63 60.8696 63 61.4219V69.4219C63 69.9742 63.4477 70.4219 64 70.4219H82C82.5523 70.4219 83 69.9742 83 69.4219V61.4219C83 60.8696 82.5523 60.4219 82 60.4219H64Z" fill="#0E2435"/>
<path d="M45.3594 11.4219H42.2266V5.375C42.2266 4.64062 42.2422 3.96875 42.2734 3.35938C42.0807 3.59375 41.8411 3.83854 41.5547 4.09375L40.2578 5.16406L38.6562 3.19531L42.5781 0H45.3594V11.4219Z" fill="#0E2435"/>
<path d="M76.3828 44.4766C76.3828 45.1849 76.1667 45.7943 75.7344 46.3047C75.3021 46.8099 74.6771 47.1771 73.8594 47.4062V47.4531C75.7656 47.6927 76.7188 48.5938 76.7188 50.1562C76.7188 51.2188 76.2969 52.0547 75.4531 52.6641C74.6146 53.2734 73.4479 53.5781 71.9531 53.5781C71.3385 53.5781 70.7682 53.5339 70.2422 53.4453C69.7214 53.3568 69.1562 53.1953 68.5469 52.9609V50.3984C69.0469 50.6536 69.5547 50.8438 70.0703 50.9688C70.5911 51.0885 71.0703 51.1484 71.5078 51.1484C72.1849 51.1484 72.6771 51.0547 72.9844 50.8672C73.2969 50.6745 73.4531 50.375 73.4531 49.9688C73.4531 49.6562 73.3724 49.4167 73.2109 49.25C73.0495 49.0781 72.7891 48.9505 72.4297 48.8672C72.0703 48.7786 71.6016 48.7344 71.0234 48.7344H70.3203V46.4141H71.0391C72.6068 46.4141 73.3906 46.013 73.3906 45.2109C73.3906 44.9089 73.2734 44.6849 73.0391 44.5391C72.8099 44.3932 72.5 44.3203 72.1094 44.3203C71.3802 44.3203 70.625 44.5651 69.8438 45.0547L68.5625 42.9922C69.1667 42.5755 69.7839 42.2786 70.4141 42.1016C71.0495 41.9245 71.776 41.8359 72.5938 41.8359C73.776 41.8359 74.7031 42.0703 75.375 42.5391C76.0469 43.0078 76.3828 43.6536 76.3828 44.4766Z" fill="#0E2435"/>
<path d="M16.7656 33.4219H8.47656V31.3906L11.2656 28.5703C12.0625 27.737 12.5833 27.1693 12.8281 26.8672C13.0729 26.5599 13.2422 26.2969 13.3359 26.0781C13.4349 25.8594 13.4844 25.6302 13.4844 25.3906C13.4844 25.0938 13.388 24.8594 13.1953 24.6875C13.0026 24.5156 12.7318 24.4297 12.3828 24.4297C12.0234 24.4297 11.6589 24.5339 11.2891 24.7422C10.9245 24.9453 10.5104 25.2474 10.0469 25.6484L8.35156 23.6641C8.9401 23.138 9.4349 22.763 9.83594 22.5391C10.237 22.3099 10.6719 22.1354 11.1406 22.0156C11.6146 21.8958 12.1458 21.8359 12.7344 21.8359C13.474 21.8359 14.1328 21.9661 14.7109 22.2266C15.2943 22.487 15.7448 22.8594 16.0625 23.3438C16.3854 23.8229 16.5469 24.362 16.5469 24.9609C16.5469 25.4089 16.4896 25.8229 16.375 26.2031C16.2656 26.5833 16.0938 26.9583 15.8594 27.3281C15.625 27.6927 15.3125 28.0781 14.9219 28.4844C14.5365 28.8906 13.7109 29.6615 12.4453 30.7969V30.875H16.7656V33.4219Z" fill="#0E2435"/>
</svg>
