<svg width="94" height="93" viewBox="0 0 94 93" fill="none" xmlns="http://www.w3.org/2000/svg">
<path d="M47 8.42176C67.9868 8.42175 85 25.4349 85 46.4218C85 67.4086 67.9868 84.4218 47 84.4218C26.0132 84.4218 9 67.4086 9 46.4218C9 25.4349 26.0132 8.42176 47 8.42176Z" fill="white"/>
<path fill-rule="evenodd" clip-rule="evenodd" d="M47 5.42156C69.6437 5.42156 88 23.7779 88 46.4216C88 69.0652 69.6437 87.4216 47 87.4216C24.3563 87.4216 6 69.0652 6 46.4216C6 23.7779 24.3563 5.42156 47 5.42156ZM85 46.4216C85 25.4347 67.9868 8.42156 47 8.42156C26.0132 8.42156 9 25.4347 9 46.4216C9 67.4084 26.0132 84.4216 47 84.4216C67.9868 84.4216 85 67.4084 85 46.4216Z" fill="#0E2435"/>
<path fill-rule="evenodd" clip-rule="evenodd" d="M27.8335 46.4216C27.8335 35.8416 36.401 27.2549 46.981 27.2549C57.5802 27.2549 66.1668 35.8416 66.1668 46.4216C66.1668 57.0016 57.5802 65.5883 46.981 65.5883C36.401 65.5883 27.8335 57.0016 27.8335 46.4216ZM54.6095 38.7549H60.2636C58.4236 35.5924 55.4911 33.1391 51.9645 31.9316C53.1145 34.0591 53.9961 36.3591 54.6095 38.7549ZM47.0003 31.1649C48.5911 33.4649 49.837 36.0141 50.6611 38.7549H43.3395C44.1636 36.0141 45.4095 33.4649 47.0003 31.1649ZM31.6668 46.4216C31.6668 47.7441 31.8585 49.0283 32.1651 50.2549H38.6435C38.4901 48.9899 38.3751 47.7249 38.3751 46.4216C38.3751 45.1183 38.4901 43.8533 38.6435 42.5883H32.1651C31.8585 43.8149 31.6668 45.0991 31.6668 46.4216ZM33.7369 54.0883H39.3911C40.0044 56.4841 40.8861 58.7841 42.0361 60.9116C38.5094 59.7041 35.5769 57.2699 33.7369 54.0883ZM33.7369 38.7549H39.3911C40.0044 36.3591 40.8861 34.0591 42.0361 31.9316C38.5094 33.1391 35.5769 35.5733 33.7369 38.7549ZM47.0003 61.6783C45.4095 59.3783 44.1636 56.8291 43.3395 54.0883H50.6611C49.837 56.8291 48.5911 59.3783 47.0003 61.6783ZM42.5152 50.2549H51.4852C51.6577 48.9899 51.7918 47.7249 51.7918 46.4216C51.7918 45.1183 51.6577 43.8341 51.4852 42.5883H42.5152C42.3427 43.8341 42.2085 45.1183 42.2085 46.4216C42.2085 47.7249 42.3427 48.9899 42.5152 50.2549ZM51.9645 60.9116C53.1145 58.7841 53.9961 56.4841 54.6095 54.0883H60.2636C58.4236 57.2508 55.4911 59.7041 51.9645 60.9116ZM55.6253 46.4216C55.6253 47.7249 55.5103 48.9899 55.357 50.2549H61.8353C62.142 49.0283 62.3336 47.7441 62.3336 46.4216C62.3336 45.0991 62.142 43.8149 61.8353 42.5883H55.357C55.5103 43.8533 55.6253 45.1183 55.6253 46.4216Z" fill="#0E2435"/>
<path d="M77.4057 71.1703C78.9678 72.7324 78.9678 75.265 77.4057 76.8271C75.8436 78.3892 73.3109 78.3892 71.7488 76.8271C70.1867 75.265 70.1867 72.7324 71.7488 71.1703C73.3109 69.6082 75.8436 69.6082 77.4057 71.1703Z" fill="#CAF3DB"/>
<path fill-rule="evenodd" clip-rule="evenodd" d="M79.527 69.049C82.2606 71.7826 82.2606 76.2148 79.527 78.9485C76.7933 81.6821 72.3612 81.6821 69.6275 78.9485C66.8938 76.2148 66.8938 71.7826 69.6275 69.049C72.3612 66.3153 76.7933 66.3153 79.527 69.049ZM77.4057 76.8271C78.9678 75.265 78.9678 72.7324 77.4057 71.1703C75.8436 69.6082 73.3109 69.6082 71.7488 71.1703C70.1867 72.7324 70.1867 75.265 71.7488 76.8271C73.3109 78.3892 75.8436 78.3892 77.4057 76.8271Z" fill="#0E2435"/>
<path d="M22.2514 16.016C23.8135 17.5781 23.8135 20.1107 22.2514 21.6728C20.6893 23.2349 18.1566 23.2349 16.5945 21.6728C15.0324 20.1107 15.0324 17.5781 16.5945 16.016C18.1566 14.4539 20.6893 14.4539 22.2514 16.016Z" fill="#D9C0F1"/>
<path fill-rule="evenodd" clip-rule="evenodd" d="M24.3727 13.8946C27.1063 16.6283 27.1063 21.0605 24.3727 23.7941C21.639 26.5278 17.2069 26.5278 14.4732 23.7941C11.7395 21.0605 11.7395 16.6283 14.4732 13.8946C17.2069 11.161 21.639 11.161 24.3727 13.8946ZM22.2514 21.6728C23.8135 20.1107 23.8135 17.5781 22.2514 16.016C20.6893 14.4539 18.1566 14.4539 16.5945 16.016C15.0324 17.5781 15.0324 20.1107 16.5945 21.6728C18.1566 23.2349 20.6893 23.2349 22.2514 21.6728Z" fill="#0E2435"/>
<path d="M77.4057 16.016C78.9678 17.5781 78.9678 20.1107 77.4057 21.6728C75.8436 23.2349 73.3109 23.2349 71.7488 21.6728C70.1867 20.1107 70.1867 17.5781 71.7488 16.016C73.3109 14.4539 75.8436 14.4539 77.4057 16.016Z" fill="#FFE1B5"/>
<path fill-rule="evenodd" clip-rule="evenodd" d="M79.527 13.8946C82.2606 16.6283 82.2606 21.0605 79.527 23.7941C76.7933 26.5278 72.3612 26.5278 69.6275 23.7941C66.8938 21.0605 66.8938 16.6283 69.6275 13.8946C72.3612 11.161 76.7933 11.161 79.527 13.8946ZM77.4057 21.6728C78.9678 20.1107 78.9678 17.5781 77.4057 16.016C75.8436 14.4539 73.3109 14.4539 71.7488 16.016C70.1867 17.5781 70.1867 20.1107 71.7488 21.6728C73.3109 23.2349 75.8436 23.2349 77.4057 21.6728Z" fill="#0E2435"/>
<path d="M21.5444 71.8774C23.1065 73.4395 23.1065 75.9722 21.5444 77.5343C19.9823 79.0963 17.4496 79.0963 15.8875 77.5343C14.3254 75.9722 14.3254 73.4395 15.8875 71.8774C17.4496 70.3153 19.9823 70.3153 21.5444 71.8774Z" fill="#D5DDE4"/>
<path fill-rule="evenodd" clip-rule="evenodd" d="M23.6656 69.7561C26.3993 72.4897 26.3993 76.9219 23.6656 79.6556C20.932 82.3892 16.4998 82.3892 13.7662 79.6556C11.0325 76.9219 11.0325 72.4897 13.7662 69.7561C16.4998 67.0224 20.932 67.0224 23.6656 69.7561ZM21.5443 77.5343C23.1064 75.9722 23.1064 73.4395 21.5443 71.8774C19.9822 70.3153 17.4496 70.3153 15.8875 71.8774C14.3254 73.4395 14.3254 75.9722 15.8875 77.5343C17.4496 79.0963 19.9822 79.0963 21.5443 77.5343Z" fill="#0E2435"/>
<path d="M51.1465 85.7751C51.1465 87.9843 49.3556 89.7751 47.1465 89.7751C44.9373 89.7751 43.1465 87.9843 43.1465 85.7751C43.1465 83.566 44.9373 81.7751 47.1465 81.7751C49.3556 81.7751 51.1465 83.566 51.1465 85.7751Z" fill="#CAF3DB"/>
<path fill-rule="evenodd" clip-rule="evenodd" d="M54.1465 85.7751C54.1465 89.6411 51.0125 92.7751 47.1465 92.7751C43.2805 92.7751 40.1465 89.6411 40.1465 85.7751C40.1465 81.9092 43.2805 78.7751 47.1465 78.7751C51.0125 78.7751 54.1465 81.9092 54.1465 85.7751ZM47.1465 89.7751C49.3556 89.7751 51.1465 87.9843 51.1465 85.7751C51.1465 83.566 49.3556 81.7751 47.1465 81.7751C44.9373 81.7751 43.1465 83.566 43.1465 85.7751C43.1465 87.9843 44.9373 89.7751 47.1465 89.7751Z" fill="#0E2435"/>
<path d="M51.1465 7.77517C51.1465 9.98431 49.3556 11.7752 47.1465 11.7752C44.9373 11.7752 43.1465 9.98431 43.1465 7.77517C43.1465 5.56603 44.9373 3.77517 47.1465 3.77517C49.3556 3.77517 51.1465 5.56603 51.1465 7.77517Z" fill="#D9C0F1"/>
<path fill-rule="evenodd" clip-rule="evenodd" d="M54.1465 7.77515C54.1465 11.6411 51.0125 14.7751 47.1465 14.7751C43.2805 14.7751 40.1465 11.6411 40.1465 7.77515C40.1465 3.90915 43.2805 0.775146 47.1465 0.775146C51.0125 0.775146 54.1465 3.90915 54.1465 7.77515ZM47.1465 11.7751C49.3556 11.7751 51.1465 9.98428 51.1465 7.77515C51.1465 5.56601 49.3556 3.77515 47.1465 3.77515C44.9373 3.77515 43.1465 5.56601 43.1465 7.77515C43.1465 9.98428 44.9373 11.7751 47.1465 11.7751Z" fill="#0E2435"/>
<path d="M90.1465 46.7752C90.1465 48.9843 88.3556 50.7752 86.1465 50.7752C83.9373 50.7752 82.1465 48.9843 82.1465 46.7752C82.1465 44.566 83.9373 42.7752 86.1465 42.7752C88.3556 42.7752 90.1465 44.566 90.1465 46.7752Z" fill="#FFE1B5"/>
<path fill-rule="evenodd" clip-rule="evenodd" d="M93.1465 46.7752C93.1465 50.6412 90.0125 53.7752 86.1465 53.7752C82.2805 53.7752 79.1465 50.6412 79.1465 46.7752C79.1465 42.9092 82.2805 39.7752 86.1465 39.7752C90.0125 39.7752 93.1465 42.9092 93.1465 46.7752ZM86.1465 50.7752C88.3556 50.7752 90.1465 48.9843 90.1465 46.7752C90.1465 44.566 88.3556 42.7752 86.1465 42.7752C83.9373 42.7752 82.1465 44.566 82.1465 46.7752C82.1465 48.9843 83.9373 50.7752 86.1465 50.7752Z" fill="#0E2435"/>
<path d="M11.1465 46.7751C11.1465 48.9842 9.35562 50.7751 7.14648 50.7751C4.93735 50.7751 3.14648 48.9842 3.14648 46.7751C3.14648 44.566 4.93735 42.7751 7.14648 42.7751C9.35562 42.7751 11.1465 44.566 11.1465 46.7751Z" fill="#D5DDE4"/>
<path fill-rule="evenodd" clip-rule="evenodd" d="M14.1465 46.7751C14.1465 50.6411 11.0125 53.7751 7.14648 53.7751C3.28049 53.7751 0.146484 50.6411 0.146484 46.7751C0.146484 42.9091 3.28049 39.7751 7.14648 39.7751C11.0125 39.7751 14.1465 42.9091 14.1465 46.7751ZM7.14648 50.7751C9.35562 50.7751 11.1465 48.9842 11.1465 46.7751C11.1465 44.5659 9.35562 42.7751 7.14648 42.7751C4.93735 42.7751 3.14648 44.5659 3.14648 46.7751C3.14648 48.9842 4.93735 50.7751 7.14648 50.7751Z" fill="#0E2435"/>
</svg>
