<svg width="70" height="85" viewBox="0 0 70 85" fill="none" xmlns="http://www.w3.org/2000/svg">
<path d="M52.6154 81.4219C52.8278 81.4219 53 81.2497 53 81.0373V81.0373C53 78.4883 50.9336 76.4219 48.3846 76.4219L22.6154 76.4219C20.0664 76.4219 18 78.4883 18 81.0373V81.0373C18 81.2497 18.1722 81.4219 18.3846 81.4219L52.6154 81.4219Z" fill="#D5DDE4"/>
<path fill-rule="evenodd" clip-rule="evenodd" d="M52.2094 78.4532C52.366 78.6846 52.5022 78.931 52.6154 79.1898C52.8628 79.7555 53 80.3803 53 81.0373C53 81.2497 52.8278 81.4219 52.6154 81.4219L18.3846 81.4219C18.1722 81.4219 18 81.2497 18 81.0373C18 80.3803 18.1372 79.7555 18.3846 79.1898C18.4978 78.931 18.634 78.6846 18.7906 78.4532C18.7977 78.4427 18.8049 78.4323 18.812 78.4219C19.6444 77.2138 21.0374 76.4219 22.6154 76.4219L48.3846 76.4219C49.9626 76.4219 51.3556 77.2138 52.188 78.4219C52.1951 78.4323 52.2023 78.4427 52.2094 78.4532ZM48.3846 73.4219L22.6154 73.4219C18.4095 73.4219 15 76.8314 15 81.0373C15 82.9065 16.5153 84.4219 18.3846 84.4219L52.6154 84.4219C54.4846 84.4219 56 82.9066 56 81.0373C56 76.8314 52.5905 73.4219 48.3846 73.4219Z" fill="#0E2435"/>
<path d="M10 8.42188L10 13.4219L61 13.4219L61 8.42188L10 8.42188Z" fill="white"/>
<path fill-rule="evenodd" clip-rule="evenodd" d="M10 5.42188C8.34315 5.42188 7 6.76502 7 8.42188L7 13.4219C7 15.0787 8.34315 16.4219 10 16.4219L61 16.4219C62.6569 16.4219 64 15.0787 64 13.4219L64 8.42188C64 6.76502 62.6569 5.42188 61 5.42188L10 5.42188ZM10 8.42188L61 8.42188L61 13.4219L10 13.4219L10 8.42188Z" fill="#0E2435"/>
<path d="M10 8.42188L10 13.4219L47 13.4219L47 8.42188L10 8.42188Z" fill="#CAF3DB"/>
<path fill-rule="evenodd" clip-rule="evenodd" d="M10 5.42188C8.34315 5.42188 7 6.76502 7 8.42188L7 13.4219C7 15.0787 8.34315 16.4219 10 16.4219L47 16.4219C48.6569 16.4219 50 15.0787 50 13.4219L50 8.42188C50 6.76502 48.6569 5.42188 47 5.42188L10 5.42188ZM10 8.42188L47 8.42188L47 13.4219L10 13.4219L10 8.42188Z" fill="#0E2435"/>
<path d="M61 30.4219L61 35.4219L10 35.4219L10 30.4219L61 30.4219Z" fill="white"/>
<path fill-rule="evenodd" clip-rule="evenodd" d="M61 27.4219C62.6569 27.4219 64 28.765 64 30.4219L64 35.4219C64 37.0787 62.6569 38.4219 61 38.4219L10 38.4219C8.34315 38.4219 7 37.0787 7 35.4219L7 30.4219C7 28.765 8.34315 27.4219 10 27.4219L61 27.4219ZM61 30.4219L10 30.4219L10 35.4219L61 35.4219L61 30.4219Z" fill="#0E2435"/>
<path d="M18 30.4219L18 35.4219L10 35.4219L10 30.4219L18 30.4219Z" fill="#D9808A"/>
<path fill-rule="evenodd" clip-rule="evenodd" d="M18 27.4219C19.6569 27.4219 21 28.765 21 30.4219L21 35.4219C21 37.0787 19.6569 38.4219 18 38.4219L10 38.4219C8.34315 38.4219 7 37.0787 7 35.4219L7 30.4219C7 28.765 8.34315 27.4219 10 27.4219L18 27.4219ZM18 30.4219L10 30.4219L10 35.4219L18 35.4219L18 30.4219Z" fill="#0E2435"/>
<path d="M61 52.4219L61 57.4219L10 57.4219L10 52.4219L61 52.4219Z" fill="white"/>
<path fill-rule="evenodd" clip-rule="evenodd" d="M61 49.4219C62.6569 49.4219 64 50.765 64 52.4219L64 57.4219C64 59.0787 62.6569 60.4219 61 60.4219L10 60.4219C8.34315 60.4219 7 59.0787 7 57.4219L7 52.4219C7 50.765 8.34315 49.4219 10 49.4219L61 49.4219ZM61 52.4219L10 52.4219L10 57.4219L61 57.4219L61 52.4219Z" fill="#0E2435"/>
<path d="M37 52.4219L37 57.4219L10 57.4219L10 52.4219L37 52.4219Z" fill="#97BFF6"/>
<path fill-rule="evenodd" clip-rule="evenodd" d="M37 49.4219C38.6569 49.4219 40 50.765 40 52.4219L40 57.4219C40 59.0787 38.6569 60.4219 37 60.4219L10 60.4219C8.34315 60.4219 7 59.0787 7 57.4219L7 52.4219C7 50.765 8.34315 49.4219 10 49.4219L37 49.4219ZM37 52.4219L10 52.4219L10 57.4219L37 57.4219L37 52.4219Z" fill="#0E2435"/>
<path d="M37 67.9219C37 67.0934 36.3284 66.4219 35.5 66.4219V66.4219C34.6716 66.4219 34 67.0934 34 67.9219L34 73.9219C34 74.7503 34.6716 75.4219 35.5 75.4219V75.4219C36.3284 75.4219 37 74.7503 37 73.9219L37 67.9219Z" fill="#0E2435"/>
<path fill-rule="evenodd" clip-rule="evenodd" d="M3.00001 66.4219H36.5C37.3284 66.4219 38 67.0935 38 67.9219C38 68.7503 37.3284 69.4219 36.5 69.4219H1.5C0.982235 69.4219 0.525738 69.1595 0.256177 68.7605C0.0944401 68.5211 -2.71589e-08 68.2325 0 67.9219L5.088e-06 54.9219V32.9219V10.9219C5.088e-06 10.6112 0.0944452 10.3226 0.256182 10.0832C0.525743 9.68421 0.98224 9.42187 1.50001 9.42188L1.50253 9.42188H7.50001C8.32843 9.42188 9 10.0935 9 10.9219C9 11.7503 8.32843 12.4219 7.5 12.4219L3.00001 12.4219L3.00001 31.4219H7.50001C8.32843 31.4219 9 32.0935 9 32.9219C9 33.7503 8.32843 34.4219 7.5 34.4219H3.00001L3.00001 53.4219H7.50001C8.32843 53.4219 9 54.0935 9 54.9219C9 55.7503 8.32843 56.4219 7.5 56.4219H3.00001L3.00001 66.4219Z" fill="#0E2435"/>
<path fill-rule="evenodd" clip-rule="evenodd" d="M67 66.4219H33.5C32.6716 66.4219 32 67.0935 32 67.9219C32 68.7503 32.6716 69.4219 33.5 69.4219H68.5C69.0178 69.4219 69.4743 69.1595 69.7438 68.7605C69.9056 68.5211 70 68.2325 70 67.9219L70 54.9219V32.9219V10.9219C70 10.6112 69.9056 10.3226 69.7438 10.0832C69.4743 9.68421 69.0178 9.42187 68.5 9.42188L68.4975 9.42188H62.5C61.6716 9.42188 61 10.0935 61 10.9219C61 11.7503 61.6716 12.4219 62.5 12.4219L67 12.4219L67 31.4219H62.5C61.6716 31.4219 61 32.0935 61 32.9219C61 33.7503 61.6716 34.4219 62.5 34.4219H67L67 53.4219H62.5C61.6716 53.4219 61 54.0935 61 54.9219C61 55.7503 61.6716 56.4219 62.5 56.4219H67L67 66.4219Z" fill="#0E2435"/>
<path d="M48 17.4219C48 17.9742 48.4477 18.4219 49 18.4219H52C52.5523 18.4219 53 17.9742 53 17.4219V4.42188C53 3.86959 52.5523 3.42188 52 3.42188H49C48.4477 3.42188 48 3.86959 48 4.42188V17.4219Z" fill="#CAF3DB"/>
<path fill-rule="evenodd" clip-rule="evenodd" d="M49 21.4219H52C54.2091 21.4219 56 19.631 56 17.4219V4.42188C56 2.21274 54.2091 0.421875 52 0.421875H49C46.7909 0.421875 45 2.21274 45 4.42188V17.4219C45 19.631 46.7909 21.4219 49 21.4219ZM49 18.4219C48.4477 18.4219 48 17.9742 48 17.4219V4.42188C48 3.86959 48.4477 3.42188 49 3.42188H52C52.5523 3.42188 53 3.86959 53 4.42188V17.4219C53 17.9742 52.5523 18.4219 52 18.4219H49Z" fill="#0E2435"/>
<path d="M24 39.4219C24 39.9742 23.5523 40.4219 23 40.4219H20C19.4477 40.4219 19 39.9742 19 39.4219L19 26.4219C19 25.8696 19.4477 25.4219 20 25.4219H23C23.5523 25.4219 24 25.8696 24 26.4219L24 39.4219Z" fill="#D9808A"/>
<path fill-rule="evenodd" clip-rule="evenodd" d="M23 43.4219H20C17.7909 43.4219 16 41.631 16 39.4219L16 26.4219C16 24.2127 17.7909 22.4219 20 22.4219H23C25.2091 22.4219 27 24.2127 27 26.4219L27 39.4219C27 41.631 25.2091 43.4219 23 43.4219ZM23 40.4219C23.5523 40.4219 24 39.9742 24 39.4219L24 26.4219C24 25.8696 23.5523 25.4219 23 25.4219H20C19.4477 25.4219 19 25.8696 19 26.4219L19 39.4219C19 39.9742 19.4477 40.4219 20 40.4219H23Z" fill="#0E2435"/>
<path d="M44 61.4219C44 61.9742 43.5523 62.4219 43 62.4219H40C39.4477 62.4219 39 61.9742 39 61.4219V48.4219C39 47.8696 39.4477 47.4219 40 47.4219H43C43.5523 47.4219 44 47.8696 44 48.4219V61.4219Z" fill="#97BFF6"/>
<path fill-rule="evenodd" clip-rule="evenodd" d="M43 65.4219H40C37.7909 65.4219 36 63.631 36 61.4219V48.4219C36 46.2127 37.7909 44.4219 40 44.4219H43C45.2091 44.4219 47 46.2127 47 48.4219V61.4219C47 63.631 45.2091 65.4219 43 65.4219ZM43 62.4219C43.5523 62.4219 44 61.9742 44 61.4219V48.4219C44 47.8696 43.5523 47.4219 43 47.4219H40C39.4477 47.4219 39 47.8696 39 48.4219V61.4219C39 61.9742 39.4477 62.4219 40 62.4219H43Z" fill="#0E2435"/>
</svg>
