<svg width="123" height="93" viewBox="0 0 123 93" fill="none" xmlns="http://www.w3.org/2000/svg">
<path d="M86.5 82.4219C87.3284 82.4219 88 83.0934 88 83.9219V83.9219C88 84.7503 87.3284 85.4219 86.5 85.4219L35.5 85.4219C34.6716 85.4219 34 84.7503 34 83.9219V83.9219C34 83.0934 34.6716 82.4219 35.5 82.4219L86.5 82.4219Z" fill="#0E2435"/>
<path d="M27.5 82.4219C28.3284 82.4219 29 83.0934 29 83.9219V83.9219C29 84.7503 28.3284 85.4219 27.5 85.4219L20.5 85.4219C19.6716 85.4219 19 84.7503 19 83.9219V83.9219C19 83.0934 19.6716 82.4219 20.5 82.4219L27.5 82.4219Z" fill="#0E2435"/>
<path d="M17.5 64.4219C18.3284 64.4219 19 65.0934 19 65.9219V65.9219C19 66.7503 18.3284 67.4219 17.5 67.4219L10.5 67.4219C9.67157 67.4219 9 66.7503 9 65.9219V65.9219C9 65.0934 9.67157 64.4219 10.5 64.4219L17.5 64.4219Z" fill="#0E2435"/>
<path d="M17.5 72.4219C18.3284 72.4219 19 73.0934 19 73.9219V73.9219C19 74.7503 18.3284 75.4219 17.5 75.4219L1.5 75.4219C0.671573 75.4219 -1.01779e-07 74.7503 -6.55671e-08 73.9219V73.9219C-2.93554e-08 73.0934 0.671573 72.4219 1.5 72.4219L17.5 72.4219Z" fill="#0E2435"/>
<path d="M32 4.42187C32 3.86959 32.4477 3.42188 33 3.42188H66H99C99.5523 3.42188 100 3.86959 100 4.42188V47.4219C100 47.9742 99.5523 48.4219 99 48.4219H33C32.4477 48.4219 32 47.9742 32 47.4219V4.42187Z" fill="white"/>
<path fill-rule="evenodd" clip-rule="evenodd" d="M103 4.42188V47.4219C103 49.631 101.209 51.4219 99 51.4219H33C30.7909 51.4219 29 49.631 29 47.4219V4.42188C29 2.21274 30.7909 0.421875 33 0.421875H99C101.209 0.421875 103 2.21273 103 4.42188ZM33 3.42188C32.4477 3.42188 32 3.86959 32 4.42188V47.4219C32 47.9742 32.4477 48.4219 33 48.4219H99C99.5523 48.4219 100 47.9742 100 47.4219V4.42188C100 3.86959 99.5523 3.42188 99 3.42188H33Z" fill="#0E2435"/>
<path d="M26 28.3229C26 27.5177 26.903 27.0427 27.5665 27.4988L65.4335 53.5324C65.7747 53.767 66.2253 53.767 66.5665 53.5324L104.433 27.4988C105.097 27.0427 106 27.5177 106 28.3229V74.4219C106 74.9741 105.552 75.4219 105 75.4219H27C26.4477 75.4219 26 74.9741 26 74.4219V28.3229Z" fill="#FFE1B5"/>
<path fill-rule="evenodd" clip-rule="evenodd" d="M66.5665 53.5324C66.2253 53.767 65.7747 53.767 65.4335 53.5324L27.5665 27.4989C26.903 27.0427 26 27.5177 26 28.3229V74.4219C26 74.9742 26.4477 75.4219 27 75.4219H105C105.552 75.4219 106 74.9742 106 74.4219V28.3229C106 27.5177 105.097 27.0427 104.433 27.4989L66.5665 53.5324ZM109 28.3229V74.4219C109 76.631 107.209 78.4219 105 78.4219H27C24.7909 78.4219 23 76.631 23 74.4219V28.3229C23 25.1022 26.6121 23.2021 29.2661 25.0267L66 50.2813L102.734 25.0267C105.388 23.2021 109 25.1022 109 28.3229Z" fill="#0E2435"/>
<path d="M66.5 62.4219C72.8513 62.4219 78 57.2731 78 50.9219V50.9219C78 44.5706 72.8513 39.4219 66.5 39.4219V39.4219C60.1487 39.4219 55 44.5706 55 50.9219V50.9219C55 57.2731 60.1487 62.4219 66.5 62.4219V62.4219Z" fill="#FB9B0B"/>
<path fill-rule="evenodd" clip-rule="evenodd" d="M52 50.9219C52 58.93 58.4919 65.4219 66.5 65.4219C74.5081 65.4219 81 58.93 81 50.9219C81 42.9137 74.5081 36.4219 66.5 36.4219C58.4919 36.4219 52 42.9137 52 50.9219ZM78 50.9219C78 57.2731 72.8513 62.4219 66.5 62.4219C60.1487 62.4219 55 57.2732 55 50.9219C55 44.5706 60.1487 39.4219 66.5 39.4219C72.8513 39.4219 78 44.5706 78 50.9219Z" fill="#0E2435"/>
<path d="M106.5 89.4219C113.956 89.4219 120 83.3777 120 75.9219V75.9219C120 68.466 113.956 62.4219 106.5 62.4219V62.4219C99.0442 62.4219 93 68.466 93 75.9219V75.9219C93 83.3777 99.0442 89.4219 106.5 89.4219V89.4219Z" fill="white"/>
<path fill-rule="evenodd" clip-rule="evenodd" d="M90 75.9219C90 85.0346 97.3873 92.4219 106.5 92.4219C115.613 92.4219 123 85.0346 123 75.9219C123 66.8092 115.613 59.4219 106.5 59.4219C97.3873 59.4219 90 66.8092 90 75.9219ZM120 75.9219C120 83.3777 113.956 89.4219 106.5 89.4219C99.0442 89.4219 93 83.3777 93 75.9219C93 68.466 99.0442 62.4219 106.5 62.4219C113.956 62.4219 120 68.466 120 75.9219Z" fill="#0E2435"/>
<path d="M115.25 72.0625C115.25 72.7708 115.034 73.3802 114.602 73.8906C114.169 74.3958 113.544 74.763 112.727 74.9922V75.0391C114.633 75.2786 115.586 76.1797 115.586 77.7422C115.586 78.8047 115.164 79.6406 114.32 80.25C113.482 80.8594 112.315 81.1641 110.82 81.1641C110.206 81.1641 109.635 81.1198 109.109 81.0312C108.589 80.9427 108.023 80.7812 107.414 80.5469V77.9844C107.914 78.2396 108.422 78.4297 108.938 78.5547C109.458 78.6745 109.938 78.7344 110.375 78.7344C111.052 78.7344 111.544 78.6406 111.852 78.4531C112.164 78.2604 112.32 77.9609 112.32 77.5547C112.32 77.2422 112.24 77.0026 112.078 76.8359C111.917 76.6641 111.656 76.5365 111.297 76.4531C110.938 76.3646 110.469 76.3203 109.891 76.3203H109.188V74H109.906C111.474 74 112.258 73.599 112.258 72.7969C112.258 72.4948 112.141 72.2708 111.906 72.125C111.677 71.9792 111.367 71.9062 110.977 71.9062C110.247 71.9062 109.492 72.151 108.711 72.6406L107.43 70.5781C108.034 70.1615 108.651 69.8646 109.281 69.6875C109.917 69.5104 110.643 69.4219 111.461 69.4219C112.643 69.4219 113.57 69.6562 114.242 70.125C114.914 70.5938 115.25 71.2396 115.25 72.0625Z" fill="#0E2435"/>
<path d="M106.414 81.0078H98.125V78.9766L100.914 76.1562C101.711 75.3229 102.232 74.7552 102.477 74.4531C102.721 74.1458 102.891 73.8828 102.984 73.6641C103.083 73.4453 103.133 73.2161 103.133 72.9766C103.133 72.6797 103.036 72.4453 102.844 72.2734C102.651 72.1016 102.38 72.0156 102.031 72.0156C101.672 72.0156 101.307 72.1198 100.938 72.3281C100.573 72.5312 100.159 72.8333 99.6953 73.2344L98 71.25C98.5885 70.724 99.0833 70.349 99.4844 70.125C99.8854 69.8958 100.32 69.7214 100.789 69.6016C101.263 69.4818 101.794 69.4219 102.383 69.4219C103.122 69.4219 103.781 69.5521 104.359 69.8125C104.943 70.0729 105.393 70.4453 105.711 70.9297C106.034 71.4089 106.195 71.9479 106.195 72.5469C106.195 72.9948 106.138 73.4089 106.023 73.7891C105.914 74.1693 105.742 74.5443 105.508 74.9141C105.273 75.2786 104.961 75.6641 104.57 76.0703C104.185 76.4766 103.359 77.2474 102.094 78.3828V78.4609H106.414V81.0078Z" fill="#0E2435"/>
<path d="M44 11.9219C44 13.8549 42.433 15.4219 40.5 15.4219C38.567 15.4219 37 13.8549 37 11.9219C37 9.98888 38.567 8.42188 40.5 8.42188C42.433 8.42188 44 9.98888 44 11.9219Z" fill="#168342"/>
<path d="M44 22.9219C44 24.8549 42.433 26.4219 40.5 26.4219C38.567 26.4219 37 24.8549 37 22.9219C37 20.9889 38.567 19.4219 40.5 19.4219C42.433 19.4219 44 20.9889 44 22.9219Z" fill="#B30015"/>
<path d="M76 11.9219C76 13.8549 74.433 15.4219 72.5 15.4219C70.567 15.4219 69 13.8549 69 11.9219C69 9.98888 70.567 8.42188 72.5 8.42188C74.433 8.42188 76 9.98888 76 11.9219Z" fill="#2F80ED"/>
<path d="M76 22.9219C76 24.8549 74.433 26.4219 72.5 26.4219C70.567 26.4219 69 24.8549 69 22.9219C69 20.9889 70.567 19.4219 72.5 19.4219C74.433 19.4219 76 20.9889 76 22.9219Z" fill="#FB9B0B"/>
<path d="M48 9.42188L61 9.42188C61.5523 9.42188 62 9.86959 62 10.4219C62 10.9742 61.5523 11.4219 61 11.4219L48 11.4219C47.4477 11.4219 47 10.9742 47 10.4219C47 9.86959 47.4477 9.42188 48 9.42188Z" fill="#D5DDE4"/>
<path d="M48 20.4219L61 20.4219C61.5523 20.4219 62 20.8696 62 21.4219C62 21.9742 61.5523 22.4219 61 22.4219L48 22.4219C47.4477 22.4219 47 21.9742 47 21.4219C47 20.8696 47.4477 20.4219 48 20.4219Z" fill="#D5DDE4"/>
<path d="M80 9.42188L93 9.42188C93.5523 9.42188 94 9.86959 94 10.4219C94 10.9742 93.5523 11.4219 93 11.4219L80 11.4219C79.4477 11.4219 79 10.9742 79 10.4219C79 9.86959 79.4477 9.42188 80 9.42188Z" fill="#D5DDE4"/>
<path d="M80 20.4219L93 20.4219C93.5523 20.4219 94 20.8696 94 21.4219C94 21.9742 93.5523 22.4219 93 22.4219L80 22.4219C79.4477 22.4219 79 21.9742 79 21.4219C79 20.8696 79.4477 20.4219 80 20.4219Z" fill="#D5DDE4"/>
<path d="M48 12.4219L61 12.4219C61.5523 12.4219 62 12.8696 62 13.4219C62 13.9742 61.5523 14.4219 61 14.4219L48 14.4219C47.4477 14.4219 47 13.9742 47 13.4219C47 12.8696 47.4477 12.4219 48 12.4219Z" fill="#D5DDE4"/>
<path d="M48 23.4219L61 23.4219C61.5523 23.4219 62 23.8696 62 24.4219C62 24.9742 61.5523 25.4219 61 25.4219L48 25.4219C47.4477 25.4219 47 24.9742 47 24.4219C47 23.8696 47.4477 23.4219 48 23.4219Z" fill="#D5DDE4"/>
<path d="M80 12.4219L93 12.4219C93.5523 12.4219 94 12.8696 94 13.4219C94 13.9742 93.5523 14.4219 93 14.4219L80 14.4219C79.4477 14.4219 79 13.9742 79 13.4219C79 12.8696 79.4477 12.4219 80 12.4219Z" fill="#D5DDE4"/>
<path d="M80 23.4219L93 23.4219C93.5523 23.4219 94 23.8696 94 24.4219C94 24.9742 93.5523 25.4219 93 25.4219L80 25.4219C79.4477 25.4219 79 24.9742 79 24.4219C79 23.8696 79.4477 23.4219 80 23.4219Z" fill="#D5DDE4"/>
<path fill-rule="evenodd" clip-rule="evenodd" d="M66.5002 43.0052C62.1302 43.0052 58.5835 46.5519 58.5835 50.9219C58.5835 55.2919 62.1302 58.8385 66.5002 58.8385C70.8702 58.8385 74.4168 55.2919 74.4168 50.9219C74.4168 46.5519 70.8702 43.0052 66.5002 43.0052ZM66.5002 51.7135C66.0647 51.7135 65.7085 51.3573 65.7085 50.9219V47.7552C65.7085 47.3198 66.0647 46.9635 66.5002 46.9635C66.9356 46.9635 67.2918 47.3198 67.2918 47.7552V50.9219C67.2918 51.3573 66.9356 51.7135 66.5002 51.7135ZM65.7085 53.2969V54.8802H67.2918V53.2969H65.7085Z" fill="white"/>
</svg>
